<svg width="307" height="302" viewBox="0 0 307 302" fill="none" xmlns="http://www.w3.org/2000/svg">
<g clip-path="url(#clip0_696_2731)">
<path d="M292.248 186.77L269.379 190.425L284.001 208.518L306.996 204.904L292.248 186.77Z" fill="#EBEBEB"/>
<path d="M269.381 190.426L261 211.998L275.74 230.141L284.003 208.518L269.381 190.426Z" fill="#DBDBDB"/>
<path d="M306.996 204.904L284.002 208.518L275.738 230.14L298.733 226.527L306.996 204.904Z" fill="#DBDBDB"/>
<path d="M295.102 240.436V211.033" stroke="#DBDBDB" stroke-width="2" stroke-miterlimit="10"/>
<path d="M295.102 243.111V246.834" stroke="#DBDBDB" stroke-width="2" stroke-miterlimit="10"/>
<path d="M288.836 235.288V222.586" stroke="#DBDBDB" stroke-width="2" stroke-miterlimit="10"/>
<path d="M61.1065 203.983C61.1065 203.983 90.8879 101.706 89.7385 88.8283C88.5892 75.9505 86.4752 80.4694 72.6499 129.373C58.833 178.286 52.8516 201.928 52.8516 201.928L61.0981 203.974L61.1065 203.983Z" fill="#EBEBEB"/>
<path d="M71.4583 206.547C103.505 132.55 102.943 107.096 65.8711 205.164L71.4583 206.547Z" fill="#DBDBDB"/>
<path d="M49.8281 201.183C69.5426 104.507 73.9804 90.8576 74.0979 124.368C74.165 141.908 52.8818 201.937 52.8818 201.937L49.8281 201.174V201.183Z" fill="#DBDBDB"/>
<path d="M66.8354 205.4C101.768 114.852 94.8383 103.182 93.6471 104.096C92.0448 105.32 59 203.455 59 203.455L66.8354 205.4Z" fill="#DBDBDB"/>
<path d="M46.8945 200.454C54.1931 86.515 62.3557 62.5954 60.9211 127.135C59.4866 191.667 51.5421 201.611 51.5421 201.611L46.8945 200.454Z" fill="#EBEBEB"/>
<path d="M46.8939 200.453C33.0602 144.289 47.8418 153.092 52.8585 201.937L46.8939 200.453Z" fill="#EBEBEB"/>
<path d="M72.4399 206.791C94.6878 174.831 102.314 163.58 87.9597 170.069C73.5976 176.558 69.1094 205.961 69.1094 205.961L72.4399 206.791Z" fill="#EBEBEB"/>
<path d="M30.6265 208.024C30.593 208.167 30.551 208.309 30.5259 208.46C28.7054 216.324 30.6014 224.188 35.1063 230.216L67.5806 238.282C74.3842 235.071 79.7533 229.001 81.8338 221.204C81.8757 221.061 81.9176 220.919 81.9512 220.776C82.2532 219.569 82.4629 218.361 82.5804 217.163C82.7649 215.469 82.7817 213.784 82.6391 212.141C82.5133 210.631 82.2532 209.147 81.8589 207.722C81.322 205.643 80.5167 203.639 79.5016 201.761L41.6918 192.371C39.9133 193.553 38.269 194.945 36.8177 196.53C35.811 197.611 34.8882 198.802 34.0745 200.076C33.1768 201.468 32.405 202.96 31.7759 204.545C31.3228 205.66 30.9369 206.825 30.6349 208.032L30.6265 208.024Z" fill="#EBEBEB"/>
<path d="M34.067 200.067L82.6316 212.132C82.5058 210.623 82.2457 209.139 81.8514 207.714L36.8018 196.529C35.7951 197.611 34.8723 198.801 34.0586 200.076L34.067 200.067Z" fill="#DBDBDB"/>
<path d="M30.628 208.024C30.5945 208.167 30.5525 208.309 30.5273 208.46L81.8268 221.204C81.8688 221.061 81.9107 220.919 81.9443 220.776C82.2463 219.569 82.456 218.362 82.5735 217.163L31.7689 204.545C31.3159 205.66 30.93 206.825 30.628 208.033V208.024Z" fill="#DBDBDB"/>
<path d="M42.707 138.446V120.562" stroke="#EBEBEB" stroke-width="2" stroke-miterlimit="10"/>
<path d="M42.707 141.129V149.815" stroke="#EBEBEB" stroke-width="2" stroke-miterlimit="10"/>
<path d="M34.0664 181.974V159.119" stroke="#EBEBEB" stroke-width="2" stroke-miterlimit="10"/>
<path d="M34.0664 184.656V188.379" stroke="#EBEBEB" stroke-width="2" stroke-miterlimit="10"/>
<path d="M39.8555 260.909V238.055" stroke="#EBEBEB" stroke-width="2" stroke-miterlimit="10"/>
<path d="M39.8555 263.592V267.314" stroke="#EBEBEB" stroke-width="2" stroke-miterlimit="10"/>
<path d="M48.5469 239.564V247.11" stroke="#EBEBEB" stroke-width="2" stroke-miterlimit="10"/>
<path d="M59.8047 256.029V243.336" stroke="#EBEBEB" stroke-width="2" stroke-miterlimit="10"/>
<path d="M87.3395 159.497C92.0793 162.457 97.1212 164.922 102.322 166.968C108.681 169.466 115.284 171.394 121.995 172.727C128.287 173.977 134.688 174.698 141.089 175.184L134.335 101.304C133.421 101.27 132.548 101.262 131.701 101.254C131.332 101.254 130.963 101.245 130.602 101.254C127.649 101.27 125.049 101.472 122.733 101.883C115.074 103.249 110.451 107.014 106.249 114.953C100.477 125.844 101.593 135.645 89.7136 142.998C82.7842 147.29 91.5172 154.475 87.3478 159.506L87.3395 159.497Z" fill="#263238"/>
<path d="M104.288 120.412C102.786 126.339 98.994 131.848 94.3296 135.754C93.0545 136.819 91.687 137.742 90.2777 138.622C88.7676 139.561 87.2324 140.491 85.9153 141.69C84.7492 142.764 83.7425 144.03 83.1385 145.505C82.4674 147.157 82.4842 148.959 82.912 150.678C83.3902 152.581 84.2962 154.359 84.7492 156.27C84.8751 156.807 84.9674 157.368 85.0009 157.93C85.5378 158.282 86.0915 158.609 86.6452 158.928C86.7794 156.882 86.0663 154.744 85.3533 152.824C84.7073 151.089 84.0445 149.261 84.3298 147.375C84.5479 145.924 85.4036 144.591 86.4019 143.543C88.8096 141.011 92.182 139.628 94.8833 137.44C97.3161 135.469 99.4554 133.105 101.116 130.447C103.012 127.421 104.237 124.151 105.017 120.672C105.126 120.194 104.413 119.926 104.288 120.412Z" fill="#263238"/>
<path d="M134.413 170.003C147.139 168.158 158.296 168.561 169.865 162.524C170.251 155.247 161.778 154.651 165.243 148.464C170.175 139.652 157.357 142.511 157.156 125.601C156.988 112.186 150.771 98.4535 134.077 100.6C132.961 100.742 131.804 100.96 130.596 101.245C127.055 102.092 123.087 103.593 118.691 105.857L119.245 108.129L134.413 169.994V170.003Z" fill="#263238"/>
<path d="M171.632 161.259C172.043 161.058 172.446 160.848 172.848 160.647C172.723 159.305 172.043 157.972 171.179 156.949C169.753 155.247 167.412 153.839 166.951 151.517C166.724 150.36 167.052 149.177 167.261 148.046C167.505 146.763 167.563 145.505 167.135 144.256C166.288 141.783 164.048 140.215 162.052 138.714C159.988 137.163 157.656 134.941 158.436 132.066C158.62 131.387 157.631 130.724 157.236 131.445C155.995 133.734 157.11 136.358 158.797 138.111C160.592 139.972 163.025 141.12 164.635 143.166C165.365 144.097 165.844 145.187 165.793 146.394C165.734 147.643 165.332 148.85 165.223 150.091C165.005 152.674 166.456 154.577 168.218 156.295C169.51 157.553 171.456 159.314 171.624 161.267L171.632 161.259Z" fill="#263238"/>
<path d="M152.134 118.598L147.132 119.828C143.187 120.799 140.776 124.782 141.747 128.726L143.5 135.841C144.471 139.784 148.457 142.193 152.402 141.223L157.404 139.992C161.349 139.021 163.76 135.038 162.789 131.095L161.037 123.98C160.065 120.037 156.079 117.627 152.134 118.598Z" fill="white"/>
<path d="M147.136 119.828L148.627 119.462C152.569 118.492 156.559 120.903 157.53 124.844L159.284 131.967C160.255 135.907 157.842 139.894 153.899 140.864L152.408 141.231C148.466 142.201 144.476 139.789 143.506 135.849L141.751 128.726C140.78 124.785 143.194 120.798 147.136 119.828Z" fill="#D9DADE" stroke="#263238" stroke-miterlimit="10"/>
<path d="M154.923 239.816C200.602 255.31 211.172 259.142 220.551 268.481C224.612 272.522 225.375 281.476 224.41 285.928C222.766 293.508 209.587 300.357 205.703 300.357H143.254L154.932 239.816H154.923Z" fill="#263238"/>
<path d="M92.1551 183.92C93.9756 197.729 97.046 212.107 99.3278 221.833C101.006 228.993 102.247 233.621 102.247 233.621L144.235 226.419C163.219 211.235 155.854 171.889 155.854 171.889C154.402 171.353 152.876 170.833 151.34 170.347C140.426 166.884 128.228 164.738 128.228 164.738C123.749 163.346 116.92 161.091 110.225 159.255C107.943 158.634 105.678 158.064 103.531 157.586C98.103 156.387 93.3967 155.826 90.9723 156.689C90.1837 164.117 90.8464 173.868 92.1635 183.929L92.1551 183.92Z" fill="url(#paint0_linear_696_2731)"/>
<path d="M112.668 159.984L114.732 184.977L146.761 188.691L148.112 169.358C137.198 165.895 128.23 164.721 128.23 164.721C123.75 163.33 119.371 161.82 112.668 159.984Z" fill="#CC8364"/>
<path d="M148.109 169.357L142.832 188.238L146.758 188.699L148.109 169.357Z" fill="#783D3C"/>
<path d="M102.247 233.621C88.4887 249.727 99.6295 257.918 99.6295 257.918L152.506 270.611L163.227 246.742C163.227 246.742 150.77 235.801 144.243 226.428L102.247 233.63V233.621Z" fill="#263238"/>
<path d="M102.246 233.621C78.5719 258.178 81.9191 300.173 108.244 300.358C153.218 300.668 189.921 300.358 189.921 300.358C171.154 259.251 126.314 242.139 102.246 233.621Z" fill="#263238"/>
<path d="M116.283 250.38C117.239 249.65 118.473 249.173 119.563 248.661C120.645 248.15 121.736 247.663 122.843 247.202C125.075 246.263 127.382 245.467 129.697 244.771C134.328 243.362 139.093 242.365 143.9 241.803C146.601 241.484 149.32 241.325 152.029 241.258C152.591 241.241 152.692 242.113 152.13 242.13C142.633 242.44 133.17 244.654 124.421 248.326C123.171 248.854 121.921 249.391 120.687 249.969C120.1 250.246 119.521 250.522 118.942 250.816C118.313 251.134 117.693 251.512 117.021 251.738C116.199 252.006 115.57 250.942 116.283 250.397V250.38Z" fill="#38474F"/>
<path d="M203.797 220.551C209.619 217.734 212.966 201.083 212.966 201.083L189.82 199.088C189.82 199.088 195.366 217.038 203.797 220.543V220.551Z" fill="#263238"/>
<path d="M152.941 169.349C160.961 167.153 182.672 179.091 209.744 190.804L219.375 216.006C206.607 220.089 157.321 193.688 157.321 193.688L152.95 169.357L152.941 169.349Z" fill="#783D3C"/>
<path d="M150.995 202.4L151.49 202.576L153.009 203.096L203.796 220.551C190.03 213.433 196.313 182.513 196.313 182.513C187.807 178.64 178.973 176.686 173.696 174.49C161.02 169.208 159.233 168.336 148.101 169.35C147.984 169.35 150.987 202.392 150.987 202.392L150.995 202.4Z" fill="url(#paint1_linear_696_2731)"/>
<path d="M214.551 216.266C217.42 216.702 220.406 216.099 222.747 214.372C228.225 210.322 229.206 201.846 225.146 193.965C219.928 183.845 175.592 146.285 175.592 146.285L164.996 147.752L199.719 206.264C202.915 211.647 208.359 215.319 214.551 216.258V216.266Z" fill="#CC8364"/>
<path d="M169.998 150.561C163.337 150.066 161.005 139.829 161.147 135.478L156.684 131.303C156.198 130.85 156.072 130.129 156.374 129.534C156.718 128.855 157.515 128.544 158.228 128.804L165.468 131.462L175.048 146.478L170.006 150.561H169.998Z" fill="#CC8364"/>
<path d="M105.512 194.074L104.706 212.443L104.094 226.377L85.2939 221.925L83.8594 221.59C83.8594 220.919 83.8594 220.257 83.8594 219.595V219.57C83.9768 192.833 86.5439 168.335 90.9566 160.471L105.503 194.074H105.512Z" fill="#CC8364"/>
<path d="M104.094 226.377C104.094 226.377 103.943 227.903 103.666 230.619C102.567 241.15 99.4467 269.613 95.1263 296.878L84.8496 290.531C84.8496 290.531 77.484 245.711 83.8597 221.59L85.2942 221.925L104.094 226.377Z" fill="#CC8364"/>
<path d="M104.706 212.443L104.093 226.378C104.093 226.378 103.942 227.903 103.666 230.62C92.6674 229.471 87.4829 224.81 85.2933 221.926C84.3286 220.676 83.9343 219.763 83.8672 219.595V219.57L104.706 212.443Z" fill="#783D3C"/>
<path d="M89.7224 287.186C89.7224 287.186 73.5733 291.763 65.9141 292.073L56.7448 296.257C55.5283 296.81 55.1844 298.378 56.0568 299.401C56.5518 299.971 57.3152 300.223 58.0535 300.047L66.2245 298.085L86.7778 298.244L89.7224 287.194V287.186Z" fill="#CC8364"/>
<path d="M95.1345 296.878C94.2452 301.85 82.9283 300.039 79.0022 300.039C76.0408 300.039 70.4033 299.922 67.8279 299.863C67.0141 299.846 66.301 299.318 66.0326 298.555C65.6383 297.406 66.3765 296.174 67.5762 295.989L76.7455 294.556L90.7553 286.918L95.1428 296.878H95.1345Z" fill="#CC8364"/>
<path d="M84.8475 288.67L65.9133 290.875L60.1584 296.383C59.4369 297.071 59.3614 298.194 59.9822 298.974C60.6114 299.754 61.7355 299.93 62.566 299.368L67.566 295.989L84.8475 296.4V288.67Z" fill="#CC8364"/>
<path d="M144.235 143.434L142.834 150.158L142.473 151.877L141.24 157.804L140.451 161.594L139.511 166.7C138.471 172.342 133.228 176.207 127.532 175.511C122.045 174.849 117.977 170.196 117.977 164.746C117.977 164.495 117.977 164.243 118.002 163.983L120.158 133.314L144.235 143.434Z" fill="#CC8364"/>
<path d="M142.832 150.159L142.471 151.878L141.238 157.805C131.263 157.52 122.379 151.324 121.867 142.412C126.825 141.934 141.103 148.926 142.832 150.159Z" fill="#783D3C"/>
<path d="M150.167 107.894C138.103 97.5144 125.813 102.788 119.278 108.791C111.694 115.758 111.25 126.188 115.117 134.899C116.879 138.915 119.572 142.578 122.944 145.404C128.842 150.359 137.289 153.084 144.361 150.023C149.47 147.827 153.086 142.905 154.672 137.565C157.348 128.552 154.261 111.415 150.167 107.894Z" fill="#CC8364"/>
<path d="M150.218 114.752C149.966 116.773 143.834 117.393 143.33 115.13C142.726 112.422 150.503 112.447 150.218 114.752Z" fill="#263238"/>
<path d="M132.365 117.099C132.567 119.018 125.998 120.746 125.168 119.807C122.928 117.249 132.005 113.669 132.365 117.099Z" fill="#263238"/>
<path d="M148.826 124.21C149.069 125.358 148.524 126.49 147.601 126.725C146.678 126.968 145.739 126.23 145.495 125.073C145.252 123.925 145.797 122.793 146.72 122.558C147.643 122.315 148.583 123.053 148.826 124.21Z" fill="#263238"/>
<path d="M133.9 126.448C134.143 127.597 133.598 128.729 132.675 128.963C131.752 129.207 130.813 128.469 130.57 127.312C130.326 126.163 130.872 125.031 131.794 124.788C132.717 124.545 133.657 125.291 133.9 126.44V126.448Z" fill="#263238"/>
<path d="M146.09 130.27C144.89 127.604 143.548 125.013 142.181 122.431C142.047 122.18 141.644 122.331 141.753 122.599C142.692 124.787 143.64 126.95 144.672 129.096C145.176 130.136 145.864 131.251 145.939 132.425C146.006 133.406 145.369 134.169 144.656 134.756C144.471 134.907 144.521 135.242 144.79 135.267C145.704 135.359 146.476 134.554 146.686 133.733C146.988 132.559 146.56 131.335 146.082 130.27H146.09Z" fill="#263238"/>
<path d="M126.209 102.436C127.576 114.995 119.682 130.589 113.005 130.782C106.537 109.956 126.209 102.436 126.209 102.436Z" fill="#263238"/>
<path d="M112.039 127.646C109.539 126.791 106.452 127.176 104.757 129.197C103.339 130.882 103.172 133.297 103.516 135.468C103.96 138.268 105.185 140.985 107.24 142.947C109.287 144.9 112.207 146.024 115.009 145.63C117.819 145.235 120.411 143.215 121.192 140.49C122.693 135.267 116.527 129.18 112.039 127.654V127.646Z" fill="#CC8364"/>
<path d="M115.41 137.213C114.521 136.04 113.321 135.059 111.945 134.514C111.316 134.262 110.679 134.061 110.008 133.952C109.336 133.843 108.649 133.877 107.969 133.835C107.524 133.809 107.39 134.53 107.843 134.614C108.145 134.673 108.414 134.74 108.69 134.866C108.967 134.992 109.227 135.151 109.496 135.302C109.773 135.453 110.041 135.612 110.31 135.78C110.435 135.855 110.57 135.939 110.687 136.031C110.805 136.115 110.997 136.216 111.081 136.333C111.056 136.308 111.023 136.283 110.997 136.266C111.039 136.3 111.081 136.333 111.123 136.367C111.232 136.459 111.333 136.543 111.442 136.627C111.509 136.677 111.576 136.727 111.643 136.777C111.652 136.777 111.643 136.777 111.66 136.786C111.92 136.953 112.155 137.222 112.365 137.448C112.81 137.909 113.237 138.379 113.606 138.89C113.783 139.133 114.194 139.276 114.479 139.284C114.773 139.284 115.133 139.175 115.351 138.957C115.855 138.446 115.838 137.767 115.419 137.213H115.41Z" fill="#263238"/>
<path d="M134.571 136.358C134.78 135.654 141.039 135.964 141.643 136.777C142.029 137.297 140.56 139.796 137.893 139.603C135.686 139.435 134.336 137.188 134.579 136.367L134.571 136.358Z" fill="#EBEBEB"/>
<path d="M76.7852 214.789C84.5451 221.245 93.8235 224.012 99.3267 225.152C102.246 225.755 105.157 225.261 105.157 225.261L108.244 184.791L103.966 175.426L90.9628 156.68C86.4075 157.61 83.9411 169.826 81.9193 182.913C80.2247 193.871 78.8237 208.744 76.7935 214.789H76.7852Z" fill="url(#paint2_linear_696_2731)"/>
<path d="M104.679 220.063C104.73 218.63 104.78 217.188 104.83 215.754C104.931 212.929 105.023 210.095 105.141 207.27C105.266 204.444 105.392 201.61 105.518 198.785C105.652 195.909 105.887 193.042 105.98 190.166C105.98 190.049 106.164 190.049 106.164 190.166C106.164 193.042 106.29 195.909 106.323 198.785C106.357 201.61 106.382 204.444 106.407 207.27C106.433 210.095 106.416 212.929 106.416 215.754C106.416 217.188 106.416 218.63 106.416 220.063C106.416 221.464 106.558 222.948 106.323 224.331C106.181 225.178 104.721 225.203 104.604 224.331C104.419 222.939 104.604 221.464 104.654 220.063H104.679Z" fill="#F8CB70"/>
<path d="M117.086 212.703C117.724 212.494 118.47 212.603 119.133 212.586C119.754 212.577 120.375 212.552 121.004 212.527C122.338 212.477 123.672 212.427 125.005 212.359C127.623 212.234 130.249 212.058 132.866 211.865C138.143 211.479 143.411 210.968 148.671 210.347C148.956 210.314 149.023 210.817 148.738 210.85C143.503 211.597 138.26 212.242 133 212.787C130.341 213.064 127.673 213.307 125.005 213.533C123.672 213.651 122.338 213.76 121.004 213.86C120.383 213.911 119.762 213.952 119.133 214.003C118.462 214.061 117.749 214.221 117.086 214.07C116.348 213.902 116.44 212.896 117.086 212.686V212.703Z" fill="#F8CB70"/>
<path d="M144.462 246.196C160.728 250.555 177.834 254.571 190.358 266.619C191.919 268.12 193.37 269.746 194.696 271.457C196.055 273.209 197.615 275.204 198.286 277.342C198.949 279.43 196.332 280.822 194.947 279.128C193.79 277.711 192.959 276.009 191.894 274.509C190.82 273.008 189.645 271.583 188.404 270.216C185.921 267.491 183.127 265.06 180.141 262.897C173.446 258.051 165.82 254.597 158.06 251.821C153.463 250.178 148.807 248.728 144.118 247.378C143.446 247.185 143.774 246.003 144.462 246.187V246.196Z" fill="#38474F"/>
<path d="M120.695 106.16C142.281 103.116 154.034 112.448 154.034 112.448C147.683 97.5157 133.875 98.6978 120.695 106.16Z" fill="#263238"/>
<path d="M113.32 132.887C112.464 121.996 114.763 112.95 119.587 108.372C124.469 103.736 128.655 102.227 135.266 100.399C133.353 99.8539 125.501 100.885 122.506 101.908C112.272 106.737 105.166 119.984 113.32 132.878V132.887Z" fill="#D9DADE"/>
<path d="M112.617 133.709C109.949 122.441 112.399 113.889 117.969 107.978C122.835 102.822 128.573 100.852 135.267 100.399C133.229 99.8708 124.789 101.011 121.568 102.076C110.528 107.047 104.035 120.889 112.617 133.709Z" fill="white"/>
<path d="M124.991 134.531L153.606 129.668C159.227 128.704 163.036 123.565 162.113 118.19C161.19 112.808 155.888 109.228 150.268 110.192L121.652 115.055C116.031 116.019 112.223 121.158 113.146 126.532C114.068 131.915 119.37 135.495 124.991 134.531Z" fill="white"/>
<path d="M132.08 133.315L154.035 129.592C159.412 128.67 163.036 123.564 162.113 118.19C161.191 112.808 156.082 109.194 150.704 110.116L128.75 113.839C123.364 114.761 119.748 119.867 120.671 125.241C121.594 130.624 126.703 134.237 132.08 133.315Z" stroke="#263238" stroke-miterlimit="10"/>
<path d="M154 127.706L143.472 129.492L139.957 130.087L138.464 130.347L132.314 131.386L131.979 131.445C131.526 131.521 131.064 131.562 130.62 131.562C126.786 131.562 123.397 128.804 122.726 124.897C121.979 120.529 124.907 116.387 129.278 115.641L140.427 113.755L146.568 112.715L148.069 112.455L151.299 111.91C151.391 111.894 151.484 111.885 151.576 111.877C151.945 111.818 152.306 111.793 152.658 111.793C156.492 111.793 159.881 114.551 160.552 118.458C161.299 122.818 158.371 126.96 154 127.706Z" fill="#D9DADE"/>
<path d="M146.57 112.715L138.466 130.346L132.316 131.386L140.429 113.754L146.57 112.715Z" fill="white"/>
<path d="M151.576 111.877L143.472 129.492L139.957 130.087L148.069 112.455L151.299 111.91C151.391 111.894 151.484 111.885 151.576 111.877Z" fill="white"/>
<path d="M147.675 121.913L136.023 123.883C135.351 124.001 134.714 123.54 134.596 122.869C134.479 122.198 134.94 121.561 135.611 121.444L147.264 119.473C147.935 119.356 148.573 119.817 148.69 120.488C148.808 121.159 148.346 121.796 147.675 121.913Z" fill="url(#paint3_linear_696_2731)"/>
<path d="M112.325 125.559L107.324 126.789C103.378 127.76 100.967 131.743 101.938 135.686L103.691 142.802C104.662 146.745 108.648 149.154 112.594 148.184L117.595 146.953C121.541 145.982 123.952 141.999 122.981 138.056L121.228 130.941C120.257 126.998 116.271 124.588 112.325 125.559Z" fill="white"/>
<path d="M109.082 130.725C111.758 130.071 114.459 131.697 115.114 134.372L115.969 137.834C116.624 140.509 114.996 143.208 112.32 143.862C109.644 144.525 106.943 142.89 106.288 140.215L105.432 136.753C104.77 134.078 106.406 131.379 109.082 130.725Z" fill="#D9DADE"/>
<path d="M108.814 126.415L107.331 126.779C103.386 127.75 100.975 131.734 101.946 135.677L103.699 142.792C104.67 146.735 108.656 149.145 112.602 148.174L114.084 147.809C118.03 146.838 120.441 142.855 119.469 138.912L117.717 131.797C116.745 127.854 112.76 125.444 108.814 126.415Z" stroke="#263238" stroke-miterlimit="10"/>
<path d="M174.689 146.201C168.028 145.706 165.695 135.47 165.838 131.118L158.43 125.543C157.944 125.09 157.818 124.369 158.12 123.774C158.464 123.095 159.261 122.785 159.974 123.045L170.15 127.102L174.689 146.201Z" fill="#CC8364"/>
<path d="M175.593 146.285L173.37 120.487C173.37 119.607 172.942 118.777 172.212 118.29L170.904 117.41L170.769 114.727C170.719 113.637 169.939 112.723 168.873 112.497L159.461 110.476C158.546 110.326 157.674 110.921 157.473 111.826L157.447 111.944C157.271 112.74 157.674 113.562 158.412 113.906L163.555 116.312L160.501 116.01C159.561 115.918 158.714 116.588 158.597 117.519C158.504 118.24 158.865 118.944 159.503 119.288L166.348 122.943C166.348 122.943 163.899 128.871 165.182 136.249C166.466 143.627 169.997 150.56 169.997 150.56L175.593 146.285Z" fill="#CC8364"/>
<path d="M156.366 201.603C156.224 202.408 155.905 203.322 156.014 204.127L157.549 204.604C157.549 204.604 157.549 204.588 157.566 204.579C158.749 202.668 159.663 200.572 160.292 198.417C160.93 196.246 161.106 194.057 161.207 191.81C161.224 191.458 160.695 191.467 160.662 191.81C160.443 193.948 159.789 196.078 159.084 198.098C158.665 199.306 158.153 200.463 157.583 201.595C157.683 200.731 157.776 199.868 157.843 199.004C157.977 197.227 157.994 195.441 157.927 193.655C157.776 190.109 157.298 186.52 156.207 183.125C156.131 182.898 155.813 182.991 155.846 183.217C156.459 186.713 156.937 190.209 156.962 193.756C156.962 195.474 156.878 197.193 156.719 198.903C156.626 199.809 156.517 200.706 156.366 201.603Z" fill="#F8CB70"/>
<path d="M206.608 239.12L207.019 237.494C208.034 237.745 209.091 237.896 210.165 237.946L210.089 239.623C208.898 239.573 207.732 239.397 206.608 239.12ZM204.099 238.273C203.009 237.804 201.977 237.209 201.029 236.513L202.027 235.163C202.874 235.783 203.797 236.312 204.77 236.731L204.099 238.273ZM212.723 239.565L212.564 237.896C213.621 237.796 214.678 237.603 215.718 237.318L216.163 238.936C215.03 239.246 213.873 239.456 212.723 239.565ZM199.032 234.769C198.235 233.939 197.497 233.008 196.859 232.002L198.277 231.105C198.856 232.019 199.519 232.857 200.24 233.604L199.032 234.769ZM218.646 238.081L218 236.53C218.998 236.119 219.955 235.616 220.844 235.046L221.75 236.462C220.777 237.083 219.737 237.628 218.646 238.081ZM223.864 234.895L222.773 233.62C223.596 232.916 224.334 232.136 224.955 231.315L226.288 232.329C225.592 233.243 224.778 234.107 223.864 234.886V234.895ZM227.706 230.082L226.213 229.319C226.481 228.8 226.708 228.255 226.892 227.71C226.951 227.525 227.01 227.341 227.069 227.156L228.688 227.609C228.629 227.827 228.562 228.037 228.486 228.246C228.277 228.867 228.017 229.487 227.715 230.082H227.706Z" fill="#EBEBEB"/>
<path d="M227.749 228.716C226.651 228.347 225.711 227.517 225.241 226.36C224.385 224.255 225.401 221.841 227.506 220.977C229.612 220.122 232.028 221.137 232.892 223.241C233.311 224.264 233.303 225.387 232.875 226.402C232.447 227.416 231.65 228.204 230.627 228.623C229.671 229.009 228.656 229.018 227.749 228.707V228.716ZM227.573 225.412C227.909 226.234 228.848 226.636 229.679 226.301C230.501 225.966 230.904 225.027 230.568 224.197C230.409 223.794 230.098 223.484 229.704 223.316C229.301 223.149 228.865 223.149 228.471 223.316C227.649 223.652 227.246 224.591 227.582 225.421L227.573 225.412Z" fill="#EBEBEB"/>
<path d="M251.371 152.984V130.842" stroke="#EBEBEB" stroke-width="2" stroke-miterlimit="10"/>
<path d="M251.371 155.666V160.101" stroke="#EBEBEB" stroke-width="2" stroke-miterlimit="10"/>
<path d="M242.68 244.051V214.656" stroke="#EBEBEB" stroke-width="2" stroke-miterlimit="10"/>
<path d="M242.68 246.734V250.457" stroke="#EBEBEB" stroke-width="2" stroke-miterlimit="10"/>
<path d="M251.371 226.285V239.817" stroke="#EBEBEB" stroke-width="2" stroke-miterlimit="10"/>
<path d="M259.07 233.428V220.734" stroke="#EBEBEB" stroke-width="2" stroke-miterlimit="10"/>
<path d="M226.562 119.531C227.259 127.404 227.955 135.335 230.027 142.965C232.099 150.594 235.631 157.997 241.285 163.53C238.643 154.476 238.433 146.486 235.455 138.119C233.198 131.789 229.138 124.905 226.562 119.54V119.531Z" fill="#DBDBDB"/>
<path d="M239.668 161.66C231.489 154.316 218.947 152.278 208.863 156.655C213.016 158.583 217.605 160.444 222.185 160.436C228.175 160.419 234.115 159.698 239.668 161.668V161.66Z" fill="#DBDBDB"/>
<path d="M234.903 151.685C235.288 146.009 235.188 140.307 234.617 134.648C234.508 133.558 234.374 132.46 233.946 131.454C233.518 130.448 232.755 129.534 231.723 129.174C230.683 128.805 229.441 129.081 228.653 129.853C227.864 130.624 227.562 131.856 227.898 132.904C226.849 132.276 225.557 131.764 224.366 131.446C223.183 131.127 221.849 131.169 220.817 131.831C220.054 132.318 219.508 133.131 219.349 134.019C219.19 134.908 219.408 135.864 219.936 136.585C218.233 136.275 216.488 138.329 216.27 140.048C216.052 141.758 216.975 143.46 218.267 144.608C219.559 145.757 221.178 146.453 222.772 147.132C226.807 148.851 230.859 149.966 234.894 151.676L234.903 151.685Z" fill="url(#paint4_linear_696_2731)"/>
<path d="M239.992 134.129C240.085 135.202 239.799 136.283 239.506 137.331C238.583 140.702 237.66 144.08 236.754 147.459L235.118 150.31L234.883 150.721C232.635 149.002 230.513 147.132 228.524 145.112C227.602 144.173 226.687 143.167 226.184 141.942C225.689 140.718 225.672 139.218 226.461 138.161C227.241 137.097 229.422 136.468 230.404 137.356C230.018 136.325 229.951 135.143 230.328 134.103C230.706 133.064 231.553 132.183 232.618 131.865C233.692 131.546 235.009 131.639 235.722 132.485C236.024 131.446 237.408 131.01 238.39 131.479C238.575 131.571 238.742 131.68 238.885 131.806C239.556 132.368 239.925 133.265 240.001 134.137L239.992 134.129Z" fill="#F8CB70"/>
<path d="M239.994 134.128C240.087 135.201 239.802 136.282 239.508 137.33C238.585 140.701 237.662 144.079 236.756 147.458L235.12 150.309C234.701 148.582 234.852 146.746 235.078 144.977C235.347 142.939 235.716 140.91 236.228 138.923C236.681 137.196 237.226 135.494 237.922 133.851C238.182 133.256 238.468 132.442 238.879 131.797C239.55 132.359 239.919 133.256 239.994 134.128Z" fill="url(#paint5_linear_696_2731)"/>
<path d="M232.217 150.292C229.65 147.391 226.512 145.01 223.022 143.317C222.318 142.973 221.529 142.654 220.766 142.814C219.994 142.973 219.34 143.845 219.692 144.549C217.67 143.434 214.642 144.801 213.568 146.846C212.494 148.892 213.4 151.743 215.472 152.774C216.873 153.478 218.526 153.378 220.095 153.269C223.601 153.009 227.108 152.749 230.606 152.497L232.217 150.284V150.292Z" fill="#F8CB70"/>
<path d="M229.648 152.566C231.209 146.311 237.308 146.546 237.308 146.546C239.833 150.302 235.37 156.598 229.648 152.566Z" fill="#263238"/>
<path d="M247.023 184.156L246.184 184.299C244.254 172.855 240.488 161.863 234.984 151.635L235.739 151.232C241.293 161.536 245.093 172.62 247.031 184.156H247.023Z" fill="#263238"/>
<path d="M240.005 125.961C235.953 142.318 236.348 150.467 240.66 161.635C242.623 157.149 242.329 152.731 242.212 147.826C241.977 137.749 240.811 132.702 240.005 125.961Z" fill="#EBEBEB"/>
<path d="M260.65 183.367L262.873 189.521L271.078 212.225L250.256 220.173L241.229 197.787L238.78 191.717L238.729 191.575C238.083 189.873 237.915 188.012 238.268 186.209C239.543 179.762 238.956 173.113 236.624 167.01C236.288 166.129 235.91 165.249 235.508 164.402L244.887 160.822C245.155 161.728 245.457 162.633 245.793 163.514C248.125 169.617 252.127 174.958 257.378 178.915C258.88 180.047 260.021 181.598 260.667 183.367H260.65Z" fill="#DBDBDB"/>
<path d="M260.65 183.367L262.873 189.521L271.078 212.225L250.256 220.173L241.229 197.787L238.78 191.717L238.729 191.575C238.083 189.873 237.915 188.012 238.268 186.209C239.543 179.762 238.956 173.113 236.624 167.01C236.288 166.129 235.91 165.249 235.508 164.402L244.887 160.822C245.155 161.728 245.457 162.633 245.793 163.514C248.125 169.617 252.127 174.958 257.378 178.915C258.88 180.047 260.021 181.598 260.667 183.367H260.65Z" fill="#DBDBDB"/>
<path d="M260.649 183.367L262.872 189.521L271.077 212.225L257.201 217.523L248.174 195.138L245.725 189.068L245.675 188.925C245.029 187.223 244.861 185.362 245.213 183.56C246.488 177.112 245.901 170.464 243.569 164.36C243.233 163.48 242.856 162.6 242.453 161.753L244.886 160.822C245.154 161.728 245.456 162.633 245.792 163.514C248.124 169.617 252.126 174.958 257.377 178.915C258.879 180.047 260.02 181.598 260.666 183.367H260.649Z" fill="#EBEBEB"/>
<path d="M260.651 183.367L262.874 189.521L241.221 197.787L238.772 191.717L238.721 191.575C238.075 189.873 237.908 188.012 238.26 186.209C239.535 179.762 238.948 173.113 236.616 167.01C236.28 166.129 235.903 165.249 235.5 164.402L244.879 160.822C245.147 161.728 245.45 162.633 245.785 163.514C248.117 169.617 252.119 174.958 257.37 178.915C258.872 180.047 260.013 181.598 260.659 183.367H260.651Z" fill="url(#paint6_linear_696_2731)"/>
<path d="M260.65 183.367L262.873 189.521L248.167 195.13L245.717 189.06L245.667 188.918C245.021 187.216 244.853 185.354 245.205 183.552C246.48 177.105 245.893 170.456 243.561 164.353C243.225 163.472 242.848 162.592 242.445 161.745L244.878 160.814C245.147 161.72 245.449 162.625 245.784 163.506C248.116 169.609 252.118 174.95 257.37 178.907C258.871 180.039 260.012 181.59 260.658 183.359L260.65 183.367Z" fill="#F8CB70"/>
<path d="M85.1907 2.59961V64.5154C83.8736 64.6412 82.5817 64.7753 81.3065 64.9179C76.0801 65.4628 71.1893 66.0497 66.6088 66.6869C63.7313 67.0726 60.9881 67.4834 58.3539 67.911C50.854 69.1183 44.3357 70.4429 38.6982 71.8682C16.0224 77.5945 7.68359 84.964 7.68359 92.9959V31.0717C7.68359 18.9568 26.6514 8.35103 85.1907 2.59961Z" fill="#DBDBDB"/>
<path d="M76.4409 15.6962C76.4409 16.6772 75.6942 17.4904 74.7211 17.591C24.1347 22.7388 7.68359 32.0618 7.68359 42.6843V38.8444C7.68359 28.2471 24.0508 18.9492 74.3352 13.8014C75.4593 13.6841 76.4325 14.5728 76.4325 15.6962H76.4409Z" fill="#EBEBEB"/>
<path d="M76.4409 23.4267C76.4409 24.4076 75.6942 25.2209 74.7211 25.3215C24.1347 30.4693 7.68359 39.7839 7.68359 50.4148V46.5749C7.68359 35.9775 24.0508 26.6797 74.3352 21.5319C75.4593 21.4145 76.4325 22.3032 76.4325 23.4267H76.4409Z" fill="#EBEBEB"/>
<path d="M76.4409 31.1572C76.4409 32.1381 75.6942 32.9513 74.7211 33.0519C24.1347 38.1997 7.68359 47.5143 7.68359 58.1453V54.3054C7.68359 43.708 24.0508 34.4102 74.3352 29.2624C75.4593 29.145 76.4325 30.0337 76.4325 31.1572H76.4409Z" fill="#EBEBEB"/>
<path d="M76.4403 38.8779C76.4403 39.8588 75.6936 40.672 74.7205 40.7727C24.1425 45.9204 7.69141 55.235 7.69141 65.866V62.0261C7.69141 51.4287 24.0586 42.1309 74.343 36.9831C75.4671 36.8657 76.4403 37.7544 76.4403 38.8779Z" fill="#EBEBEB"/>
<path d="M76.4403 46.6083C76.4403 47.5893 75.6936 48.4025 74.7205 48.5031C24.1425 53.6509 7.69141 62.9655 7.69141 73.5964V69.7566C7.69141 59.1592 24.0586 49.8613 74.343 44.7136C75.4671 44.5962 76.4403 45.4849 76.4403 46.6083Z" fill="#EBEBEB"/>
<path d="M38.3291 60.3494C38.3458 59.1421 37.2049 58.245 36.0304 58.5384C15.2841 63.6527 7.68359 70.2677 7.68359 77.4863V81.3261C7.68359 74.0069 15.4939 67.2997 36.9029 62.1603C37.725 61.9591 38.3207 61.2381 38.3291 60.3913C38.3291 60.3745 38.3291 60.3662 38.3291 60.3494Z" fill="#EBEBEB"/>
<g style="mix-blend-mode:multiply">
<path d="M24.5457 49.9274V111.852C13.9167 106.536 7.68359 100.089 7.68359 93.1469V31.2227C7.68359 38.1646 13.9083 44.6035 24.5457 49.9274Z" fill="#DBDBDB"/>
</g>
<path d="M77.1813 44.9395L54.0273 45.2497L65.8728 65.2706L89.1442 65.0191L77.1813 44.9395Z" fill="white"/>
<path d="M54.027 45.2578L42.6094 65.3878L54.5723 85.4675L65.8724 65.2704L54.027 45.2578Z" fill="#F8CB70"/>
<path d="M89.1458 65.0195L65.8744 65.271L54.5742 85.4681L77.8373 85.2166L89.1458 65.0195Z" fill="url(#paint7_linear_696_2731)"/>
<path d="M42.5219 78.7684L43.688 79.9757C42.9414 80.6967 42.2451 81.5184 41.6411 82.4071L40.2569 81.4597C40.928 80.4787 41.6914 79.5733 42.5219 78.7684ZM44.5689 77.0832C45.542 76.4125 46.5907 75.8508 47.6812 75.4148L48.302 76.9742C47.3289 77.3599 46.3893 77.8629 45.5168 78.4666L44.5605 77.0916L44.5689 77.0832ZM38.9146 83.715L40.4163 84.4611C39.9465 85.4085 39.5438 86.4146 39.2418 87.4458L37.6311 86.968C37.9666 85.8445 38.3945 84.7546 38.9146 83.715ZM50.2231 74.6351C51.3473 74.392 52.5218 74.2662 53.7214 74.2578L53.7382 75.9346C52.656 75.943 51.5906 76.0604 50.5755 76.2784L50.2231 74.6435V74.6351ZM37.0438 89.5251L38.6965 89.7934C38.5203 90.8581 38.4448 91.9313 38.4532 92.9877L36.7754 93.0044C36.7586 91.8474 36.8509 90.6737 37.0438 89.5167V89.5251ZM36.9935 95.637L38.6545 95.3855C38.8223 96.4586 39.0908 97.4899 39.4515 98.454L37.8827 99.0493C37.4717 97.9761 37.1781 96.8275 36.9935 95.637ZM39.0488 101.439L40.4834 100.575C40.7854 101.078 41.1293 101.556 41.4901 102C41.6159 102.151 41.7417 102.294 41.8676 102.436L40.6344 103.568C40.4834 103.401 40.3408 103.233 40.1981 103.065C39.7787 102.562 39.3928 102.009 39.0488 101.439Z" fill="#DBDBDB"/>
<path d="M40.1827 102.211C41.0803 101.473 42.2799 101.113 43.5048 101.331C45.753 101.716 47.2631 103.854 46.8772 106.093C46.4913 108.331 44.3521 109.849 42.1122 109.463C41.0216 109.279 40.0736 108.675 39.436 107.778C38.7985 106.881 38.5552 105.783 38.7397 104.693C38.9159 103.678 39.4444 102.815 40.1827 102.203V102.211ZM43.0769 103.804C42.2044 103.653 41.3655 104.24 41.2145 105.12C41.0635 105.992 41.6508 106.83 42.5316 106.981C42.9595 107.057 43.3873 106.956 43.7397 106.713C44.092 106.462 44.3269 106.093 44.4024 105.665C44.5534 104.793 43.9578 103.955 43.0853 103.804H43.0769Z" fill="#DBDBDB"/>
<path d="M104.512 8.66839V75.7571C119.579 73.7869 135.937 72.7138 153.009 72.7138C178.546 72.7138 202.438 75.1116 222.907 79.3036V12.2064C202.438 8.02282 178.546 5.625 153.009 5.625C135.929 5.625 119.579 6.69815 104.512 8.66839Z" fill="#DBDBDB"/>
<path d="M131.624 45.7596C131.624 50.0522 128.142 53.7914 123.847 54.11C119.552 54.4286 116.07 51.2092 116.07 46.9249C116.07 42.6407 119.552 38.8931 123.847 38.5745C128.142 38.2559 131.624 41.4753 131.624 45.7596Z" fill="#EBEBEB"/>
<path d="M195.694 20.4814C195.694 24.2878 192.607 26.9287 188.798 26.367C184.99 25.8137 181.902 22.2672 181.902 18.4609C181.902 14.6546 184.99 12.0136 188.798 12.5753C192.607 13.1287 195.694 16.6751 195.694 20.4814Z" fill="#EBEBEB"/>
<path d="M206.902 61.1875H189.629V63.317H206.902V61.1875Z" fill="#EBEBEB"/>
<path d="M211.449 61.1875H209.461V63.317H211.449V61.1875Z" fill="#EBEBEB"/>
<path d="M168.016 78.8179C182.768 78.8179 194.727 67.1328 194.727 52.7185C194.727 38.3042 182.768 26.6191 168.016 26.6191C153.264 26.6191 141.305 38.3042 141.305 52.7185C141.305 67.1328 153.264 78.8179 168.016 78.8179Z" fill="#EBEBEB"/>
<path d="M192.782 42.9347C190.911 44.469 188.797 45.7685 186.457 46.783C172.967 52.6099 157.187 46.6488 151.222 33.4608C151.105 33.2009 150.996 32.9494 150.887 32.6895C152.757 31.1636 154.872 29.8641 157.212 28.8496C170.71 23.0143 186.482 28.9837 192.446 42.1634C192.564 42.4233 192.673 42.6748 192.782 42.9347Z" fill="white"/>
<path d="M207.438 35.682C206.825 34.416 205.718 33.5693 204.678 33.083C203.621 32.5883 202.572 32.32 201.549 32.1691C199.502 31.8673 197.53 31.9176 195.592 32.0601C192.379 32.3117 189.258 32.865 186.188 33.5776C186.884 34.2064 187.547 34.8772 188.168 35.5814C190.693 35.1287 193.218 34.8017 195.743 34.7095C197.547 34.6676 199.351 34.743 201.003 35.0784C202.648 35.3886 204.116 36.1599 204.392 36.9983C204.711 37.8116 204.191 39.2452 203.243 40.5531C202.295 41.861 201.028 43.0599 199.703 44.2002C198.017 45.5835 196.196 46.8495 194.3 48.0233C193.134 48.7527 191.943 49.4402 190.743 50.1109C184.384 53.5902 177.74 56.5749 171.088 59.501C167.757 60.9682 164.376 62.3348 160.954 63.5421C157.531 64.7661 154.083 65.9063 150.601 66.8118C149.15 67.1891 147.699 67.5496 146.247 67.8514C144.217 68.2874 142.187 68.6311 140.182 68.8156C138.488 68.9665 136.785 69.0252 135.308 68.8407C134.57 68.7653 133.924 68.5892 133.454 68.4048C132.976 68.2035 132.808 68.0443 132.724 67.9688C132.649 67.885 132.556 67.6167 132.657 67.0885C132.766 66.5687 133.018 65.9147 133.404 65.2608C134.159 63.9445 135.258 62.6114 136.441 61.3538C138.018 59.7106 139.771 58.1511 141.617 56.6839C141.365 55.1329 141.264 53.5819 141.306 52.0392C138.479 53.825 135.702 55.7365 133.11 58.0338C131.634 59.3584 130.207 60.7753 128.957 62.5527C128.337 63.4498 127.766 64.4643 127.372 65.7135C126.986 66.9376 126.818 68.606 127.498 70.2241C128.194 71.8338 129.536 72.9237 130.719 73.5525C131.927 74.1981 133.093 74.5502 134.201 74.7766C136.424 75.2377 138.504 75.3216 140.551 75.2796C144.603 75.1623 148.471 74.6005 152.271 73.7957C152.288 73.7957 152.313 73.7873 152.33 73.7873C156.138 72.9573 159.88 71.9512 163.537 70.7439C167.203 69.5366 170.786 68.1532 174.334 66.6777C181.381 63.6427 188.076 59.7776 194.175 55.0574C194.334 54.9317 194.502 54.8059 194.661 54.6802C197.539 52.4416 200.299 50.027 202.807 47.2855C204.141 45.8434 205.399 44.3008 206.456 42.5066C206.993 41.6179 207.455 40.6202 207.74 39.48C208.017 38.3649 208.05 36.9564 207.438 35.682Z" fill="#EBEBEB"/>
<path d="M193.218 66.9629H180.047V69.0924H193.218V66.9629Z" fill="#EBEBEB"/>
<path d="M199.209 66.9629H195.77V69.0924H199.209V66.9629Z" fill="#EBEBEB"/>
<path d="M177.229 100.164L175.987 99.0404C176.683 98.269 177.321 97.4055 177.866 96.4749L179.309 97.33C178.705 98.3529 178 99.3087 177.229 100.164ZM175.299 101.983C174.376 102.721 173.361 103.35 172.304 103.861L171.583 102.352C172.531 101.899 173.428 101.338 174.259 100.675L175.308 101.983H175.299ZM180.492 94.9825L178.94 94.3369C179.351 93.356 179.678 92.3332 179.913 91.2852L181.549 91.6541C181.289 92.7943 180.937 93.9177 180.492 94.9825ZM169.821 104.8C168.714 105.119 167.548 105.328 166.356 105.412L166.23 103.744C167.313 103.66 168.361 103.475 169.36 103.19L169.821 104.8ZM181.968 89.0634L180.299 88.9041C180.4 87.831 180.408 86.7578 180.324 85.7014L181.994 85.5673C182.086 86.7159 182.078 87.898 181.968 89.0634ZM181.608 82.9682L179.972 83.3371C179.737 82.2807 179.393 81.2663 178.965 80.3273L180.492 79.6314C180.97 80.671 181.348 81.7945 181.608 82.9766V82.9682ZM179.167 77.3174L177.791 78.2816C177.455 77.8037 177.086 77.3426 176.692 76.9234C176.557 76.7808 176.423 76.6467 176.281 76.5126L177.438 75.2969C177.598 75.4478 177.757 75.6071 177.908 75.7748C178.361 76.2527 178.781 76.7725 179.167 77.3174Z" fill="#DBDBDB"/>
<path d="M177.983 76.6215C177.136 77.418 175.97 77.854 174.729 77.7282C172.463 77.4935 170.811 75.4645 171.046 73.2008C171.281 70.9372 173.311 69.2855 175.576 69.5203C176.675 69.6293 177.665 70.1658 178.361 71.021C179.057 71.8762 179.376 72.9493 179.267 74.0476C179.158 75.0705 178.688 75.9676 177.992 76.6299L177.983 76.6215ZM174.989 75.2214C175.869 75.3136 176.666 74.6681 176.759 73.7793C176.851 72.899 176.205 72.1025 175.316 72.0103C174.888 71.9684 174.468 72.0942 174.133 72.3624C173.797 72.6391 173.588 73.0164 173.546 73.4524C173.453 74.3327 174.099 75.1292 174.989 75.2214Z" fill="#DBDBDB"/>
<path d="M149.879 12.9102C137.337 12.9856 125.072 13.7486 113.352 15.1906C112.723 15.2661 112.262 15.8026 112.262 16.4398C112.262 16.4482 112.262 16.4566 112.262 16.465C112.262 17.2111 112.908 17.7813 113.646 17.689C125.265 16.2638 137.437 15.5008 149.887 15.4337C150.566 15.4337 151.12 14.8888 151.12 14.2097V14.1845C151.12 13.4887 150.558 12.9185 149.862 12.9269L149.879 12.9102Z" fill="#EBEBEB"/>
<path d="M149.828 18.4863C137.303 18.5618 125.055 19.3247 113.36 20.7668C112.731 20.8422 112.27 21.3788 112.27 22.0076V22.0328C112.27 22.7789 112.915 23.349 113.662 23.2652C125.264 21.8399 137.42 21.0854 149.853 21.0099C150.532 21.0099 151.078 20.465 151.086 19.7858C151.086 19.7775 151.086 19.7691 151.086 19.7607C151.086 19.0648 150.524 18.4947 149.828 18.5031V18.4863Z" fill="#EBEBEB"/>
<path d="M149.786 24.0527C137.278 24.1282 125.046 24.8911 113.36 26.3248C112.731 26.4003 112.27 26.9368 112.27 27.5656V27.5908C112.27 28.337 112.915 28.9071 113.662 28.8232C125.256 27.398 137.387 26.6434 149.811 26.5679C150.49 26.5679 151.044 26.0146 151.044 25.3355C151.044 25.3271 151.044 25.3187 151.044 25.3103C151.044 24.6145 150.482 24.0527 149.786 24.0527Z" fill="#EBEBEB"/>
<path d="M125.801 30.6427C121.598 30.9781 117.453 31.3973 113.368 31.8919C112.739 31.9674 112.277 32.504 112.277 33.1328V33.1579C112.277 33.9041 112.923 34.4742 113.67 34.3904C117.722 33.8957 121.833 33.4849 126.01 33.1495C126.648 33.0992 127.151 32.571 127.16 31.9255C127.16 31.9171 127.16 31.9087 127.16 31.9003C127.16 31.1709 126.539 30.584 125.809 30.6427H125.801Z" fill="#EBEBEB"/>
<path d="M203.56 27.306L219.248 32.3699L215.817 16.172L200.07 11.041L203.56 27.306Z" fill="white"/>
<path d="M219.248 32.3705L231.538 21.3958L228.048 5.13086L215.816 16.1726L219.248 32.3705Z" fill="#DBDBDB"/>
<path d="M200.07 11.0417L215.817 16.1727L228.048 5.13101L212.302 0L200.07 11.0417Z" fill="#EBEBEB"/>
<path d="M292.16 104.716V125.693C292.16 116.043 266.045 104.255 245.651 96.8685L238.68 100.063V73.4688C259.468 80.4694 292.16 93.9257 292.16 104.724V104.716Z" fill="#DBDBDB"/>
<path d="M257.211 85.0547C257.219 85.5661 257.236 86.0775 257.245 86.589C257.245 86.6896 257.244 86.7818 257.253 86.8824C274.744 94.0507 292.16 103.349 292.16 111.23V109.419C292.16 101.529 274.719 92.2314 257.219 85.0631L257.211 85.0547Z" fill="#EBEBEB"/>
<path d="M255.825 84.5013C252.352 83.1011 248.896 81.7848 245.582 80.5859C245.582 81.1728 245.59 81.7513 245.599 82.3382C245.599 82.3633 245.599 82.3801 245.599 82.4053C248.887 83.5958 252.327 84.9037 255.783 86.2954C255.792 85.7002 255.808 85.0965 255.817 84.5013H255.825Z" fill="#EBEBEB"/>
<path d="M285.523 104.865L285.549 106.106C285.549 106.307 285.557 106.508 285.565 106.71C289.634 109.912 292.151 113.115 292.151 116.108V114.297C292.151 111.296 289.617 108.085 285.523 104.865Z" fill="#EBEBEB"/>
<path d="M266.705 94.0676C259.834 90.8817 252.427 87.9389 245.648 85.4824C245.648 86.0861 245.657 86.6897 245.665 87.3017C252.427 89.7499 259.818 92.6843 266.672 95.8702L266.697 94.076L266.705 94.0676Z" fill="#EBEBEB"/>
<path d="M268.098 94.7207L268.123 96.54C274.08 99.3654 279.575 102.367 283.786 105.385L283.828 103.599C279.6 100.573 274.08 97.5545 268.09 94.7207H268.098Z" fill="#EBEBEB"/>
<path d="M253.987 93.7157C251.177 92.609 248.392 91.5526 245.707 90.5801C245.707 91.1837 245.724 91.7874 245.724 92.3994C248.392 93.3636 251.152 94.4116 253.937 95.5099C253.954 94.9146 253.962 94.3193 253.979 93.7157H253.987Z" fill="#EBEBEB"/>
<g style="mix-blend-mode:multiply">
<path d="M292.162 104.146V125.123C292.162 132.057 286.843 138.563 277.531 144.18V123.195C286.843 117.578 292.162 111.072 292.162 104.146Z" fill="#DBDBDB"/>
</g>
<path d="M292.16 76.4782V97.455C292.16 86.6564 259.468 73.1917 238.68 66.191V45.2227C259.468 52.2233 292.16 65.6796 292.16 76.4782Z" fill="#DBDBDB"/>
<path d="M267.456 62.8967C267.456 62.3685 267.473 61.8403 267.481 61.3121C260.375 57.9753 252.641 54.8983 245.594 52.3496C245.594 52.9365 245.602 53.515 245.611 54.1019C245.611 54.127 245.611 54.1438 245.611 54.1689C252.641 56.7177 260.359 59.7862 267.447 63.1063C267.447 63.0392 267.447 62.9637 267.447 62.8967H267.456Z" fill="#EBEBEB"/>
<path d="M269.219 62.1426C269.219 62.3941 269.227 62.6456 269.236 62.8971C269.236 63.2576 269.252 63.6098 269.261 63.9703C281.92 70.0822 292.163 76.9571 292.163 83.002V81.191C292.163 75.1462 281.903 68.2629 269.219 62.1426Z" fill="#EBEBEB"/>
<path d="M283.286 74.9861C273.873 68.4214 258.614 61.9489 245.652 57.2539C245.652 57.8576 245.661 58.4612 245.669 59.0732C258.605 63.7599 273.831 70.2156 283.236 76.7719C283.252 76.1766 283.261 75.5813 283.278 74.9944L283.286 74.9861Z" fill="#EBEBEB"/>
<path d="M284.879 76.1426C284.896 76.7546 284.913 77.375 284.921 77.9871C289.368 81.3574 292.153 84.7362 292.153 87.8802V86.0692C292.153 82.9085 289.351 79.5297 284.871 76.1426H284.879Z" fill="#EBEBEB"/>
<path d="M272.699 73.8214C264.343 69.5288 254.503 65.5297 245.711 62.3438C245.711 62.9474 245.728 63.551 245.728 64.1631C254.494 67.3406 264.301 71.323 272.632 75.6072C272.648 75.012 272.674 74.4251 272.69 73.8298L272.699 73.8214Z" fill="#EBEBEB"/>
<g style="mix-blend-mode:multiply">
<path d="M292.162 75.916V96.8928C292.162 102.326 288.899 107.499 283.001 112.185L277.531 119.354V94.9645C286.843 89.3472 292.162 82.8412 292.162 75.916Z" fill="#DBDBDB"/>
</g>
<path d="M292.16 48.2491V69.2259C292.16 59.316 264.602 47.1424 243.998 39.8064L238.68 42.439V17.002C259.468 24.0026 292.16 37.4589 292.16 48.2575V48.2491Z" fill="#DBDBDB"/>
<path d="M260.708 34.684C260.741 34.1475 260.758 33.6193 260.775 33.0827C255.674 30.9028 250.465 28.8823 245.582 27.1133C245.582 27.7002 245.59 28.2787 245.599 28.8655C245.599 28.8907 245.599 28.9075 245.599 28.9326C250.448 30.6849 255.624 32.697 260.691 34.8601C260.691 34.8014 260.691 34.7427 260.699 34.684H260.708Z" fill="#EBEBEB"/>
<path d="M287.855 48.5098C287.864 49.1218 287.872 49.7254 287.872 50.3375C290.565 52.8778 292.159 55.3846 292.159 57.7573V55.9464C292.159 53.5653 290.565 51.0501 287.855 48.5098Z" fill="#EBEBEB"/>
<path d="M286.235 47.0933C280.615 42.4653 271.621 37.7954 262.125 33.6621C262.142 34.0059 262.15 34.3412 262.167 34.685C262.184 34.9616 262.2 35.2383 262.226 35.515C271.672 39.6231 280.598 44.2679 286.202 48.8707C286.21 48.2754 286.227 47.6802 286.244 47.0933H286.235Z" fill="#EBEBEB"/>
<path d="M267.401 40.922C260.338 37.6103 252.662 34.5501 245.648 32.0098C245.648 32.6134 245.657 33.2171 245.665 33.8291C252.662 36.3611 260.321 39.4128 267.376 42.7245C267.376 42.1293 267.393 41.5256 267.401 40.9303V40.922Z" fill="#EBEBEB"/>
<path d="M268.844 41.6094C268.844 42.213 268.861 42.8251 268.869 43.4287C271.923 44.8959 274.85 46.405 277.526 47.9393C277.535 47.344 277.552 46.7488 277.56 46.1535C274.867 44.6108 271.923 43.085 268.844 41.6094Z" fill="#EBEBEB"/>
<g style="mix-blend-mode:multiply">
<path d="M292.162 47.6797V68.6565C292.162 75.59 286.843 82.096 277.531 87.7133V66.7281C286.843 61.1109 292.162 54.6049 292.162 47.6797Z" fill="#DBDBDB"/>
</g>
<path d="M197.775 120.855C198.362 124.419 201.156 127.219 204.729 127.806C201.164 128.393 198.362 131.185 197.775 134.756C197.188 131.193 194.394 128.393 190.82 127.806C194.386 127.219 197.188 124.427 197.775 120.855Z" fill="#EBEBEB"/>
<path d="M17.5913 131.268C18.1785 134.831 20.9721 137.631 24.5459 138.218C20.9805 138.805 18.1785 141.597 17.5913 145.168C17.0041 141.605 14.2105 138.805 10.6367 138.218C14.2021 137.631 17.0041 134.839 17.5913 131.268Z" fill="#EBEBEB"/>
<path d="M191.618 113.578C191.929 115.481 193.422 116.965 195.326 117.284C193.422 117.594 191.937 119.086 191.618 120.99C191.308 119.086 189.814 117.602 187.91 117.284C189.814 116.974 191.299 115.481 191.618 113.578Z" fill="#EBEBEB"/>
<path d="M16.1165 253.506C16.6031 256.44 18.9017 258.746 21.8463 259.232C18.9101 259.718 16.6031 262.016 16.1165 264.958C15.6299 262.024 13.3313 259.718 10.3867 259.232C13.3229 258.746 15.6299 256.449 16.1165 253.506Z" fill="#EBEBEB"/>
<path d="M266.706 264.363C267.193 267.298 269.492 269.603 272.436 270.09C269.5 270.576 267.193 272.873 266.706 275.816C266.22 272.881 263.921 270.576 260.977 270.09C263.913 269.603 266.22 267.306 266.706 264.363Z" fill="#EBEBEB"/>
<path d="M167.481 223.047C167.951 225.906 170.199 228.144 173.06 228.622C170.199 229.092 167.959 231.339 167.481 234.198C167.011 231.339 164.763 229.1 161.902 228.622C164.763 228.153 167.003 225.906 167.481 223.047Z" fill="#EBEBEB"/>
<path d="M111.643 84.6777C112.146 87.7547 114.562 90.1693 117.641 90.6723C114.562 91.1753 112.146 93.5899 111.643 96.6669C111.139 93.5899 108.723 91.1753 105.645 90.6723C108.723 90.1693 111.139 87.7547 111.643 84.6777Z" fill="#EBEBEB"/>
<path d="M0 301.162H296.354" stroke="#EBEBEB" stroke-width="2" stroke-miterlimit="10"/>
<path d="M229.754 36.0267V16.123" stroke="#DBDBDB" stroke-width="2" stroke-miterlimit="10"/>
<path d="M229.754 37.8379V40.3615" stroke="#DBDBDB" stroke-width="2" stroke-miterlimit="10"/>
<path d="M225.516 32.5389V23.9453" stroke="#DBDBDB" stroke-width="2" stroke-miterlimit="10"/>
</g>
<defs>
<linearGradient id="paint0_linear_696_2731" x1="90.6328" y1="194.946" x2="157.26" y2="194.946" gradientUnits="userSpaceOnUse">
<stop stop-color="#EEB543"/>
<stop offset="1" stop-color="#FFD98E"/>
</linearGradient>
<linearGradient id="paint1_linear_696_2731" x1="148.098" y1="194.766" x2="203.796" y2="194.766" gradientUnits="userSpaceOnUse">
<stop stop-color="#EEB543"/>
<stop offset="1" stop-color="#FFD98E"/>
</linearGradient>
<linearGradient id="paint2_linear_696_2731" x1="76.7852" y1="191.066" x2="108.244" y2="191.066" gradientUnits="userSpaceOnUse">
<stop stop-color="#EEB543"/>
<stop offset="1" stop-color="#FFD98E"/>
</linearGradient>
<linearGradient id="paint3_linear_696_2731" x1="134.578" y1="121.678" x2="148.708" y2="121.678" gradientUnits="userSpaceOnUse">
<stop stop-color="#EEB543"/>
<stop offset="1" stop-color="#FFD98E"/>
</linearGradient>
<linearGradient id="paint4_linear_696_2731" x1="216.238" y1="140.348" x2="235.133" y2="140.348" gradientUnits="userSpaceOnUse">
<stop stop-color="#EEB543"/>
<stop offset="1" stop-color="#FFD98E"/>
</linearGradient>
<linearGradient id="paint5_linear_696_2731" x1="234.855" y1="141.053" x2="240.012" y2="141.053" gradientUnits="userSpaceOnUse">
<stop stop-color="#EEB543"/>
<stop offset="1" stop-color="#FFD98E"/>
</linearGradient>
<linearGradient id="paint6_linear_696_2731" x1="235.5" y1="179.305" x2="262.874" y2="179.305" gradientUnits="userSpaceOnUse">
<stop stop-color="#EEB543"/>
<stop offset="1" stop-color="#FFD98E"/>
</linearGradient>
<linearGradient id="paint7_linear_696_2731" x1="54.5742" y1="75.2438" x2="89.1458" y2="75.2438" gradientUnits="userSpaceOnUse">
<stop stop-color="#EEB543"/>
<stop offset="1" stop-color="#FFD98E"/>
</linearGradient>
<clipPath id="clip0_696_2731">
<rect width="307" height="302" fill="white"/>
</clipPath>
</defs>
</svg>
