<svg width="403" height="255" viewBox="0 0 403 255" fill="none" xmlns="http://www.w3.org/2000/svg">
<g clip-path="url(#clip0_688_2677)">
<path d="M354.272 14.4847V228.59C354.272 236.587 347.799 243.075 339.819 243.075H91.5736C85.0182 243.075 79.4804 238.707 77.7166 232.712C77.3309 231.413 77.1211 230.019 77.1211 228.59V14.4847C77.1211 6.48759 83.5948 0 91.5748 0H339.82C347.8 0 354.274 6.48759 354.274 14.4847H354.272Z" fill="white"/>
<path d="M331.512 127.09H297.304C292.822 127.09 289.188 130.732 289.188 135.224V202.515C289.188 207.007 292.822 210.649 297.304 210.649H331.512C335.995 210.649 339.629 207.007 339.629 202.515V135.224C339.629 130.732 335.995 127.09 331.512 127.09Z" fill="url(#paint0_linear_688_2677)"/>
<path d="M354.271 22.3667V14.4892C354.271 6.48828 347.8 0.00195312 339.816 0.00195312H91.5722C83.5884 0.00195312 77.1172 6.48828 77.1172 14.4892V22.3667H354.272H354.271Z" fill="url(#paint1_linear_688_2677)"/>
<path d="M354.271 22.3667V14.4892C354.271 6.48828 347.8 0.00195312 339.816 0.00195312H91.5722C83.5884 0.00195312 77.1172 6.48828 77.1172 14.4892V22.3667H354.272H354.271Z" fill="url(#paint2_linear_688_2677)"/>
<path d="M94.6086 12.8839C94.6086 14.7913 93.0709 16.3424 91.1676 16.3424C89.2643 16.3424 87.7266 14.7913 87.7266 12.8839C87.7266 10.9766 89.2643 9.43555 91.1676 9.43555C93.0709 9.43555 94.6086 10.9866 94.6086 12.8839Z" fill="white"/>
<path d="M104.327 12.8839C104.327 14.7913 102.79 16.3424 100.886 16.3424C98.983 16.3424 97.4453 14.7913 97.4453 12.8839C97.4453 10.9766 98.983 9.43555 100.886 9.43555C102.79 9.43555 104.327 10.9866 104.327 12.8839Z" fill="white"/>
<path d="M114.046 12.8839C114.046 14.7913 112.508 16.3424 110.605 16.3424C108.702 16.3424 107.164 14.7913 107.164 12.8839C107.164 10.9766 108.702 9.43555 110.605 9.43555C112.508 9.43555 114.046 10.9866 114.046 12.8839Z" fill="white"/>
<path d="M211.82 127.09H65.7927C61.3099 127.09 57.6758 130.732 57.6758 135.224V202.515C57.6758 207.007 61.3099 210.649 65.7927 210.649H211.82C216.303 210.649 219.937 207.007 219.937 202.515V135.224C219.937 130.732 216.303 127.09 211.82 127.09Z" fill="url(#paint3_linear_688_2677)"/>
<path d="M115.125 144.977H74.8805C72.2412 144.977 70.1016 147.121 70.1016 149.766V187.974C70.1016 190.619 72.2412 192.763 74.8805 192.763H115.125C117.764 192.763 119.904 190.619 119.904 187.974V149.766C119.904 147.121 117.764 144.977 115.125 144.977Z" fill="white"/>
<path d="M272.298 211.177H264.838V210.119H272.298L272.379 211.177H272.298ZM257.377 211.177H249.917V210.119H257.377V211.177ZM242.456 211.177H238.09C236.978 211.177 235.896 210.969 234.874 210.557L235.266 209.575C236.163 209.935 237.114 210.119 238.089 210.119H242.454V211.177H242.456ZM279.217 207.706L278.373 207.071C279.363 205.748 279.886 204.172 279.886 202.514V200.266H280.941V202.514C280.941 204.402 280.346 206.199 279.216 207.706H279.217ZM229.758 204.833C229.551 204.081 229.445 203.301 229.445 202.514V197.242H230.501V202.514C230.501 203.205 230.594 203.89 230.776 204.551L229.759 204.833H229.758ZM280.942 192.791H279.887V185.315H280.942V192.791ZM230.501 189.766H229.445V182.291H230.501V189.766ZM280.942 177.839H279.887V170.363H280.942V177.839ZM230.501 174.815H229.445V167.339H230.501V174.815ZM280.942 162.887H279.887V155.411H280.942V162.887ZM230.501 159.863H229.445V152.387H230.501V159.863ZM280.942 147.935H279.887V140.459H280.942V147.935ZM230.501 144.911H229.445V137.435H230.501V144.911ZM279.604 133.156C278.966 130.89 277.278 129.019 275.089 128.151L275.477 127.168C277.97 128.156 279.892 130.287 280.619 132.868L279.604 133.155V133.156ZM232.036 130.639L231.195 130.001C232.837 127.829 235.335 126.575 238.051 126.562L238.056 127.62C235.673 127.631 233.478 128.732 232.037 130.639H232.036ZM267.894 127.62H260.434V126.562H267.894V127.62ZM252.973 127.62H245.513V126.562H252.973V127.62Z" fill="url(#paint4_linear_688_2677)"/>
<path d="M250.001 38.7305H97.5424C94.0219 38.7305 91.168 41.5905 91.168 45.1186V110.421C91.168 113.949 94.0219 116.809 97.5424 116.809H250.001C253.521 116.809 256.375 113.949 256.375 110.421V45.1186C256.375 41.5905 253.521 38.7305 250.001 38.7305Z" fill="url(#paint5_linear_688_2677)" fill-opacity="0.4"/>
<path d="M334.405 38.7305H271.707C268.186 38.7305 265.332 41.5905 265.332 45.1186V110.421C265.332 113.949 268.186 116.809 271.707 116.809H334.405C337.925 116.809 340.779 113.949 340.779 110.421V45.1186C340.779 41.5905 337.925 38.7305 334.405 38.7305Z" fill="url(#paint6_linear_688_2677)"/>
<path d="M162.995 48.6836H104.755C103.335 48.6836 102.184 49.8374 102.184 51.2608V104.278C102.184 105.701 103.335 106.855 104.755 106.855H162.995C164.415 106.855 165.566 105.701 165.566 104.278V51.2608C165.566 49.8374 164.415 48.6836 162.995 48.6836Z" fill="white"/>
<path d="M137.262 89.8954H111.75L124.503 74.1328L129.838 80.7236L137.262 89.8954Z" fill="#373A50"/>
<path d="M156.005 89.8973H123.867L139.933 70.043L156.005 89.8973Z" fill="#373A50"/>
<path d="M132.187 68.7019C132.187 70.394 130.815 71.7688 129.127 71.7688C127.438 71.7688 126.066 70.394 126.066 68.7019C126.066 67.0098 127.438 65.6426 129.127 65.6426C130.815 65.6426 132.187 67.0098 132.187 68.7019Z" fill="#373A50"/>
<path d="M181.136 57.0156H232.332C233.42 57.0156 234.304 57.9007 234.304 58.9922V63.5939C234.304 64.6841 233.421 65.5705 232.332 65.5705H181.136C180.048 65.5705 179.164 64.6854 179.164 63.5939V58.9922C179.164 57.902 180.047 57.0156 181.136 57.0156Z" fill="white"/>
<path d="M241.135 72.2422H179.164V76.7683H241.135V72.2422Z" fill="white"/>
<path d="M241.135 83.4434H179.164V87.9694H241.135V83.4434Z" fill="white"/>
<path d="M198.982 94.6426H179.164V99.1699H198.982V94.6426Z" fill="white"/>
<path d="M222.287 94.6426H209.52V99.1699H222.287V94.6426Z" fill="white"/>
<path d="M315.999 90.7421C323.148 83.5776 323.148 71.9615 315.999 64.7969C308.849 57.6324 297.258 57.6324 290.109 64.7969C282.96 71.9615 282.96 83.5776 290.109 90.7421C297.258 97.9067 308.849 97.9067 315.999 90.7421Z" fill="white"/>
<path d="M311.334 79.388L300.563 85.9259C299.314 86.6864 297.704 85.7849 297.704 84.3119L297.68 71.2373C297.68 69.7642 299.29 68.8515 300.55 69.6119L311.333 76.1498C312.547 76.8864 312.547 78.6515 311.333 79.3892L311.334 79.388Z" fill="#FF4129"/>
<path d="M158.899 147.49H132.516V154.481H158.899V147.49Z" fill="white"/>
<path d="M205.705 162.617H132.008V166.558H205.705V162.617Z" fill="white"/>
<path d="M205.705 172.445H132.008V176.386H205.705V172.445Z" fill="white"/>
<path d="M154.84 182.271H132.008V186.212H154.84V182.271Z" fill="white"/>
<path d="M167.777 182.271H161.562V186.212H167.777V182.271Z" fill="white"/>
<path d="M182.237 182.271H174.246V186.212H182.237V182.271Z" fill="white"/>
<path d="M50.987 70.3333L52.0033 76.6559C52.1214 77.4843 51.4129 78.2183 50.5862 78.0761L43.2142 76.8926C38.9855 79.3313 34.0709 80.7275 28.8484 80.7275C12.9236 80.7275 0 67.7989 0 51.8399C0 35.8809 12.9236 22.9297 28.8484 22.9297C44.7733 22.9297 57.673 35.8809 57.673 51.8399C57.673 58.8727 55.1453 65.3363 50.987 70.332V70.3333Z" fill="url(#paint7_linear_688_2677)"/>
<path d="M43.7789 63.0271H13.899C13.3161 63.0271 12.8438 62.5537 12.8438 61.9695V41.6884C12.8438 41.1042 13.3161 40.6309 13.899 40.6309H43.7802C44.3631 40.6309 44.8355 41.1042 44.8355 41.6884V61.9695C44.8355 62.5537 44.3631 63.0271 43.7802 63.0271H43.7789ZM14.9531 60.912H42.7236V42.7447H14.9531V60.912Z" fill="white"/>
<path d="M28.8403 54.7872C28.6066 54.7872 28.3717 54.7091 28.1782 54.5543L13.2383 42.5133L14.5599 40.8652L28.839 52.3737L43.1181 40.8652L44.4398 42.5133L29.4998 54.5543C29.3064 54.7104 29.0727 54.7872 28.8378 54.7872H28.8403Z" fill="white"/>
<path d="M401.347 223.097C401.585 228.739 399.374 233.865 395.705 237.506C393.171 240.022 391.33 242.896 390.433 246.143H374.202C373.352 242.969 371.644 240.119 369.134 237.71C365.512 234.237 363.266 229.351 363.266 223.923C363.266 212.903 372.589 204.062 383.765 204.89C393.326 205.609 400.941 213.502 401.347 223.097Z" fill="url(#paint8_linear_688_2677)"/>
<path d="M387.601 226.372C387.565 226.367 387.528 226.367 387.493 226.368C387.456 226.368 387.42 226.368 387.384 226.372C385.984 226.452 384.87 227.618 384.87 229.041V230.788H379.753V229.041C379.753 227.618 378.639 226.452 377.239 226.372C377.203 226.367 377.166 226.367 377.13 226.368C377.095 226.368 377.057 226.368 377.022 226.372C375.622 226.452 374.508 227.618 374.508 229.041C374.508 230.463 375.704 231.714 377.175 231.714H378.829V246.825C378.829 247.081 379.037 247.287 379.291 247.287C379.544 247.287 379.752 247.08 379.752 246.825V231.714H384.869V246.825C384.869 247.081 385.076 247.287 385.33 247.287C385.583 247.287 385.791 247.08 385.791 246.825V231.714H387.445C388.916 231.714 390.112 230.515 390.112 229.041C390.112 227.566 388.998 226.452 387.598 226.372H387.601ZM378.831 230.788H377.176C376.214 230.788 375.432 230.004 375.432 229.041C375.432 228.078 376.19 227.317 377.131 227.293C378.072 227.317 378.831 228.091 378.831 229.041V230.788ZM387.448 230.788H385.793V229.041C385.793 228.091 386.551 227.317 387.493 227.293C388.434 227.317 389.191 228.091 389.191 229.041C389.191 229.99 388.41 230.788 387.448 230.788Z" fill="white"/>
<path d="M390.391 246.145H374.24C373.725 246.145 373.309 246.562 373.309 247.077V251.135C373.309 251.65 373.725 252.068 374.24 252.068H390.391C390.905 252.068 391.321 251.65 391.321 251.135V247.077C391.321 246.562 390.905 246.145 390.391 246.145Z" fill="#373A50"/>
<path d="M387.838 252.068V254.296C387.838 254.688 387.525 255.002 387.133 255.002H377.49C377.103 255.002 376.785 254.688 376.785 254.296V252.068H387.838Z" fill="#373A50"/>
<path d="M382.157 200.865C381.712 200.865 381.352 200.503 381.352 200.058V196.176C381.352 195.73 381.712 195.369 382.157 195.369C382.602 195.369 382.962 195.73 382.962 196.176V200.058C382.962 200.503 382.602 200.865 382.157 200.865Z" fill="url(#paint9_linear_688_2677)"/>
<path d="M372.657 203.585C372.378 203.585 372.108 203.441 371.958 203.181L370.022 199.82C369.8 199.435 369.932 198.941 370.317 198.718C370.702 198.494 371.194 198.628 371.417 199.013L373.353 202.374C373.575 202.76 373.443 203.253 373.057 203.476C372.93 203.549 372.792 203.584 372.655 203.584L372.657 203.585Z" fill="url(#paint10_linear_688_2677)"/>
<path d="M365.784 210.7C365.647 210.7 365.509 210.665 365.382 210.592L362.028 208.652C361.642 208.429 361.511 207.935 361.732 207.55C361.955 207.165 362.446 207.031 362.832 207.255L366.186 209.195C366.572 209.418 366.702 209.912 366.481 210.297C366.332 210.556 366.062 210.701 365.783 210.701L365.784 210.7Z" fill="url(#paint11_linear_688_2677)"/>
<path d="M398.842 210.154C398.563 210.154 398.293 210.01 398.143 209.75C397.921 209.365 398.053 208.871 398.438 208.649L401.793 206.708C402.177 206.484 402.67 206.618 402.892 207.003C403.114 207.388 402.982 207.882 402.597 208.105L399.242 210.045C399.116 210.118 398.977 210.153 398.84 210.153L398.842 210.154Z" fill="url(#paint12_linear_688_2677)"/>
<path d="M391.738 203.27C391.601 203.27 391.463 203.235 391.336 203.162C390.952 202.939 390.82 202.445 391.041 202.06L392.977 198.698C393.199 198.313 393.69 198.18 394.076 198.404C394.46 198.627 394.592 199.12 394.371 199.505L392.435 202.867C392.286 203.126 392.016 203.271 391.737 203.271L391.738 203.27Z" fill="url(#paint13_linear_688_2677)"/>
</g>
<defs>
<linearGradient id="paint0_linear_688_2677" x1="289.188" y1="168.869" x2="339.629" y2="168.869" gradientUnits="userSpaceOnUse">
<stop stop-color="#EBF2FF"/>
<stop offset="1" stop-color="#E1E8FF"/>
</linearGradient>
<linearGradient id="paint1_linear_688_2677" x1="215.693" y1="5.09206" x2="215.693" y2="13.1106" gradientUnits="userSpaceOnUse">
<stop stop-color="#D1DEFF"/>
<stop offset="1" stop-color="#B2C7FF"/>
</linearGradient>
<linearGradient id="paint2_linear_688_2677" x1="77.1172" y1="11.1843" x2="354.272" y2="11.1843" gradientUnits="userSpaceOnUse">
<stop stop-color="#EEB543"/>
<stop offset="1" stop-color="#FFD98E"/>
</linearGradient>
<linearGradient id="paint3_linear_688_2677" x1="57.6758" y1="168.869" x2="219.937" y2="168.869" gradientUnits="userSpaceOnUse">
<stop stop-color="#EEB543"/>
<stop offset="1" stop-color="#FFD98E"/>
</linearGradient>
<linearGradient id="paint4_linear_688_2677" x1="229.445" y1="168.87" x2="280.942" y2="168.87" gradientUnits="userSpaceOnUse">
<stop stop-color="#909EFF"/>
<stop offset="1" stop-color="#6977E3"/>
</linearGradient>
<linearGradient id="paint5_linear_688_2677" x1="91.168" y1="77.7699" x2="256.375" y2="77.7699" gradientUnits="userSpaceOnUse">
<stop stop-color="#EEB543"/>
<stop offset="1" stop-color="#FFD98E"/>
</linearGradient>
<linearGradient id="paint6_linear_688_2677" x1="265.332" y1="77.7693" x2="340.779" y2="77.7693" gradientUnits="userSpaceOnUse">
<stop stop-color="#EBF2FF"/>
<stop offset="1" stop-color="#E1E8FF"/>
</linearGradient>
<linearGradient id="paint7_linear_688_2677" x1="57.673" y1="51.8286" x2="0" y2="51.8286" gradientUnits="userSpaceOnUse">
<stop stop-color="#EEB543"/>
<stop offset="1" stop-color="#C5880F"/>
</linearGradient>
<linearGradient id="paint8_linear_688_2677" x1="382.315" y1="227.248" x2="382.315" y2="246.202" gradientUnits="userSpaceOnUse">
<stop stop-color="#FADF68"/>
<stop offset="1" stop-color="#EAC250"/>
</linearGradient>
<linearGradient id="paint9_linear_688_2677" x1="381.352" y1="198.118" x2="382.962" y2="198.118" gradientUnits="userSpaceOnUse">
<stop stop-color="#FADF68"/>
<stop offset="1" stop-color="#EAC250"/>
</linearGradient>
<linearGradient id="paint10_linear_688_2677" x1="369.914" y1="201.098" x2="373.461" y2="201.098" gradientUnits="userSpaceOnUse">
<stop stop-color="#FADF68"/>
<stop offset="1" stop-color="#EAC250"/>
</linearGradient>
<linearGradient id="paint11_linear_688_2677" x1="361.626" y1="208.923" x2="366.591" y2="208.923" gradientUnits="userSpaceOnUse">
<stop stop-color="#FADF68"/>
<stop offset="1" stop-color="#EAC250"/>
</linearGradient>
<linearGradient id="paint12_linear_688_2677" x1="398.036" y1="208.378" x2="403" y2="208.378" gradientUnits="userSpaceOnUse">
<stop stop-color="#FADF68"/>
<stop offset="1" stop-color="#EAC250"/>
</linearGradient>
<linearGradient id="paint13_linear_688_2677" x1="390.934" y1="200.782" x2="394.481" y2="200.782" gradientUnits="userSpaceOnUse">
<stop stop-color="#FADF68"/>
<stop offset="1" stop-color="#EAC250"/>
</linearGradient>
<clipPath id="clip0_688_2677">
<rect width="403" height="255" fill="white"/>
</clipPath>
</defs>
</svg>
