<svg width="431" height="309" viewBox="0 0 431 309" fill="none" xmlns="http://www.w3.org/2000/svg">
<g clip-path="url(#clip0_696_2957)">
<path d="M319.43 102.391H107.68C105.687 102.391 104.07 104.007 104.07 106.001V241.871C104.07 243.864 105.687 245.481 107.68 245.481H319.43C321.424 245.481 323.04 243.864 323.04 241.871V106.001C323.04 104.007 321.424 102.391 319.43 102.391Z" fill="#E3EAFF"/>
<path d="M317.622 112.801H109.492V231.611H317.622V112.801Z" fill="white"/>
<path d="M214.87 107.171C214.87 107.891 214.28 108.481 213.56 108.481C212.84 108.481 212.25 107.891 212.25 107.171C212.25 106.451 212.84 105.861 213.56 105.861C214.28 105.861 214.87 106.451 214.87 107.171Z" fill="#D5CBFB"/>
<path d="M352.512 292.17L325.612 249.36C324.092 246.94 321.442 245.48 318.592 245.48H108.522C105.672 245.48 103.012 246.95 101.502 249.36L74.6015 292.17C73.8415 293.38 73.5715 294.82 73.8115 296.21H353.302C353.542 294.82 353.272 293.38 352.512 292.17Z" fill="white"/>
<path d="M73.8125 296.211C73.8625 296.501 73.9225 296.781 74.0225 297.061L74.4425 298.331C75.2325 300.691 77.4325 302.281 79.9125 302.281H347.203C349.683 302.281 351.892 300.691 352.682 298.331L353.103 297.061C353.193 296.781 353.263 296.491 353.312 296.211H73.8125Z" fill="#E3EAFF"/>
<path d="M118.644 266.611L119.954 263.721H113.474L112.094 266.611H118.644Z" fill="#E3EAFF"/>
<path d="M130.061 258.401L130.701 256.901L131.291 255.521H125.021L123.711 258.401H130.061Z" fill="#E3EAFF"/>
<path d="M121.29 263.721L119.98 266.611H126.56L127.79 263.721H121.29Z" fill="#E3EAFF"/>
<path d="M120.513 262.511L121.823 259.621H115.452L114.062 262.511H120.513Z" fill="#E3EAFF"/>
<path d="M252.461 255.521L253.191 258.401H258.761L257.961 255.521H252.461Z" fill="#E3EAFF"/>
<path d="M152.474 263.721L151.594 266.611H158.214L159.064 263.721H152.474Z" fill="#E3EAFF"/>
<path d="M144.724 263.721L143.684 266.611H150.314L151.194 263.721H144.724Z" fill="#E3EAFF"/>
<path d="M136.931 263.721L135.781 266.611H142.391L143.421 263.721H136.931Z" fill="#E3EAFF"/>
<path d="M129.113 263.721L127.883 266.611H134.473L135.623 263.721H129.113Z" fill="#E3EAFF"/>
<path d="M259.23 255.521L260.03 258.401H265.23L264.39 255.521H259.23Z" fill="#E3EAFF"/>
<path d="M174.882 259.621L174.152 262.511H179.392L180.042 259.621H174.882Z" fill="#E3EAFF"/>
<path d="M231.73 255.521L232.22 258.401H238.27L237.7 255.521H231.73Z" fill="#E3EAFF"/>
<path d="M173.932 258.401L174.652 255.521H169.162L168.352 258.401H173.932Z" fill="#E3EAFF"/>
<path d="M167.093 258.401L167.893 255.521H162.723L161.883 258.401H167.093Z" fill="#E3EAFF"/>
<path d="M180.311 258.401L180.961 255.521H175.911L175.191 258.401H180.311Z" fill="#E3EAFF"/>
<path d="M265.66 255.521L266.5 258.401H273.02L272.14 255.521H265.66Z" fill="#E3EAFF"/>
<path d="M147.673 255.521L146.633 258.401H152.823L153.283 256.921L153.703 255.521H147.673Z" fill="#E3EAFF"/>
<path d="M145.34 258.401L146.37 255.521H140.22L139.07 258.401H145.34Z" fill="#E3EAFF"/>
<path d="M132.621 255.521L131.391 258.401H137.751L138.351 256.901L138.901 255.521H132.621Z" fill="#E3EAFF"/>
<path d="M246.152 255.521L246.802 258.401H251.932L251.212 255.521H246.152Z" fill="#E3EAFF"/>
<path d="M238.941 255.521L239.511 258.401H245.551L244.901 255.521H238.941Z" fill="#E3EAFF"/>
<path d="M160.612 258.401L161.452 255.521H154.982L154.102 258.401H160.612Z" fill="#E3EAFF"/>
<path d="M168.232 254.301L168.982 251.621H163.862L163.082 254.301H168.232Z" fill="#E3EAFF"/>
<path d="M161.812 254.301L162.592 251.621H156.172L155.352 254.301H161.812Z" fill="#E3EAFF"/>
<path d="M224.613 255.521L224.943 258.401H230.983L230.493 255.521H224.613Z" fill="#E3EAFF"/>
<path d="M188.422 254.301L188.952 251.621H183.092L182.492 254.301H188.422Z" fill="#E3EAFF"/>
<path d="M181.243 254.301L181.843 251.621H176.893L176.223 254.301H181.243Z" fill="#E3EAFF"/>
<path d="M174.964 254.301L175.634 251.621H170.244L169.504 254.301H174.964Z" fill="#E3EAFF"/>
<path d="M295.82 255.521L297.05 258.401H303.4L302.09 255.521H295.82Z" fill="#E3EAFF"/>
<path d="M131.822 254.301L132.962 251.621H126.802L125.582 254.301H131.822Z" fill="#E3EAFF"/>
<path d="M139.391 254.301L140.471 251.621H134.291L133.141 254.301H139.391Z" fill="#E3EAFF"/>
<path d="M154.073 254.301L154.893 251.621H149.073L148.113 254.301H154.073Z" fill="#E3EAFF"/>
<path d="M303.434 255.521L304.744 258.401H311.084L309.694 255.521H303.434Z" fill="#E3EAFF"/>
<path d="M146.811 254.301L147.781 251.621H141.781L140.711 254.301H146.811Z" fill="#E3EAFF"/>
<path d="M273.41 255.521L274.3 258.401H280.48L279.45 255.521H273.41Z" fill="#E3EAFF"/>
<path d="M187.8 263.721L187.23 266.611H193.5L193.99 263.721H187.8Z" fill="#E3EAFF"/>
<path d="M160.332 263.721L159.492 266.611H164.802L165.602 263.721H160.332Z" fill="#E3EAFF"/>
<path d="M180.373 263.721L179.723 266.611H185.993L186.553 263.721H180.373Z" fill="#E3EAFF"/>
<path d="M166.87 263.721L166.07 266.611H171.86L172.59 263.721H166.87Z" fill="#E3EAFF"/>
<path d="M173.851 263.721L173.121 266.611H178.471L179.121 263.721H173.851Z" fill="#E3EAFF"/>
<path d="M196.623 255.521L196.133 258.401H202.173L202.513 255.521H196.623Z" fill="#E3EAFF"/>
<path d="M195.59 254.301L196.05 251.621H190.19L189.66 254.301H195.59Z" fill="#E3EAFF"/>
<path d="M188.613 259.621L188.043 262.511H194.203L194.693 259.621H188.613Z" fill="#E3EAFF"/>
<path d="M288.211 255.521L289.361 258.401H295.731L294.501 255.521H288.211Z" fill="#E3EAFF"/>
<path d="M201.694 262.511L202.034 259.621H195.924L195.434 262.511H201.694Z" fill="#E3EAFF"/>
<path d="M280.742 255.521L281.782 258.401H288.052L286.902 255.521H280.742Z" fill="#E3EAFF"/>
<path d="M122.373 258.401L123.683 255.521H117.423L116.043 258.401H122.373Z" fill="#E3EAFF"/>
<path d="M261.051 266.611L260.241 263.721H254.531L255.251 266.611H261.051Z" fill="#E3EAFF"/>
<path d="M168.011 259.621L167.211 262.511H172.901L173.621 259.621H168.011Z" fill="#E3EAFF"/>
<path d="M271.773 254.301L270.953 251.621H264.523L265.313 254.301H271.773Z" fill="#E3EAFF"/>
<path d="M286.414 254.301L285.334 251.621H279.344L280.304 254.301H286.414Z" fill="#E3EAFF"/>
<path d="M279.013 254.301L278.043 251.621H272.223L273.043 254.301H279.013Z" fill="#E3EAFF"/>
<path d="M244.632 254.301L244.032 251.621H238.172L238.702 254.301H244.632Z" fill="#E3EAFF"/>
<path d="M237.463 254.301L236.932 251.621H231.062L231.523 254.301H237.463Z" fill="#E3EAFF"/>
<path d="M293.972 254.301L292.832 251.621H286.652L287.722 254.301H293.972Z" fill="#E3EAFF"/>
<path d="M257.62 254.301L256.87 251.621H251.48L252.16 254.301H257.62Z" fill="#E3EAFF"/>
<path d="M250.901 254.301L250.221 251.621H245.281L245.881 254.301H250.901Z" fill="#E3EAFF"/>
<path d="M253.994 266.611L253.274 263.721H248.004L248.644 266.611H253.994Z" fill="#E3EAFF"/>
<path d="M299.234 266.611L298.004 263.721H291.504L292.654 266.611H299.234Z" fill="#E3EAFF"/>
<path d="M283.432 266.611L282.402 263.721H275.922L276.802 266.611H283.432Z" fill="#E3EAFF"/>
<path d="M315.03 266.611L313.64 263.721H307.16L308.47 266.611H315.03Z" fill="#E3EAFF"/>
<path d="M307.132 266.611L305.822 263.721H299.332L300.562 266.611H307.132Z" fill="#E3EAFF"/>
<path d="M291.331 266.611L290.181 263.721H283.691L284.731 266.611H291.331Z" fill="#E3EAFF"/>
<path d="M247.393 266.611L246.753 263.721H240.562L241.133 266.611H247.393Z" fill="#E3EAFF"/>
<path d="M301.542 254.301L300.322 251.621H294.152L295.302 254.301H301.542Z" fill="#E3EAFF"/>
<path d="M312.431 258.401H318.281L316.651 255.521H311.051L312.431 258.401Z" fill="#E3EAFF"/>
<path d="M267.632 266.611L266.792 263.721H261.512L262.312 266.611H267.632Z" fill="#E3EAFF"/>
<path d="M309.1 254.301L307.81 251.621H301.66L302.88 254.301H309.1Z" fill="#E3EAFF"/>
<path d="M275.533 266.611L274.652 263.721H268.062L268.902 266.611H275.533Z" fill="#E3EAFF"/>
<path d="M315.962 254.301L314.452 251.621H309.172L310.462 254.301H315.962Z" fill="#E3EAFF"/>
<path d="M264.041 254.301L263.251 251.621H258.141L258.891 254.301H264.041Z" fill="#E3EAFF"/>
<path d="M224.672 266.611L224.342 263.721H218.012L218.132 266.611H224.672Z" fill="#E3EAFF"/>
<path d="M130.871 259.621L130.221 261.131L129.641 262.511H136.111L137.261 259.621H130.871Z" fill="#E3EAFF"/>
<path d="M231.684 262.511L231.194 259.621H225.094L225.424 262.511H231.684Z" fill="#E3EAFF"/>
<path d="M128.312 262.511L129.542 259.621H123.162L122.472 261.131L121.852 262.511H128.312Z" fill="#E3EAFF"/>
<path d="M182.21 255.521L181.57 258.401H187.61L188.17 255.521H182.21Z" fill="#E3EAFF"/>
<path d="M189.422 255.521L188.852 258.401H194.902L195.392 255.521H189.422Z" fill="#E3EAFF"/>
<path d="M153.724 259.621L152.844 262.511H159.414L160.254 259.621H153.724Z" fill="#E3EAFF"/>
<path d="M138.582 259.621L137.422 262.511H143.862L144.902 259.621H138.582Z" fill="#E3EAFF"/>
<path d="M161.534 259.621L160.684 262.511H165.944L166.754 259.621H161.534Z" fill="#E3EAFF"/>
<path d="M217.852 259.621L217.972 262.511H224.192L223.862 259.621H217.852Z" fill="#E3EAFF"/>
<path d="M146.2 259.621L145.16 262.511H151.57L152.45 259.621H146.2Z" fill="#E3EAFF"/>
<path d="M223.241 254.301L222.931 251.621H217.531L217.631 254.301H223.241Z" fill="#E3EAFF"/>
<path d="M239.893 266.611L239.323 263.721H233.133L233.623 266.611H239.893Z" fill="#E3EAFF"/>
<path d="M210.813 251.621L210.703 254.301H216.413L216.313 251.621H210.813Z" fill="#E3EAFF"/>
<path d="M210.653 255.521L210.543 258.401H216.583L216.463 255.521H210.653Z" fill="#E3EAFF"/>
<path d="M223.724 258.401L223.384 255.521H217.684L217.804 258.401H223.724Z" fill="#E3EAFF"/>
<path d="M230.282 254.301L229.832 251.621H224.152L224.472 254.301H230.282Z" fill="#E3EAFF"/>
<path d="M210.491 259.621L210.371 262.511H216.741L216.631 259.621H210.491Z" fill="#E3EAFF"/>
<path d="M210.321 263.721L210.211 266.611H216.911L216.791 263.721H210.321Z" fill="#E3EAFF"/>
<path d="M209.483 254.301L209.593 251.621H204.193L203.883 254.301H209.483Z" fill="#E3EAFF"/>
<path d="M196.832 254.301H202.652L202.962 251.621H197.292L196.832 254.301Z" fill="#E3EAFF"/>
<path d="M239.084 262.511L238.514 259.621H232.434L232.924 262.511H239.084Z" fill="#E3EAFF"/>
<path d="M181.291 259.621L180.641 262.511H186.801L187.361 259.621H181.291Z" fill="#E3EAFF"/>
<path d="M103.512 267.82L102.082 270.35H108.932L110.152 267.82H103.512Z" fill="#E3EAFF"/>
<path d="M266.431 262.511L265.591 259.621H260.371L261.171 262.511H266.431Z" fill="#E3EAFF"/>
<path d="M262.652 267.82L263.362 270.35H268.722L267.992 267.82H262.652Z" fill="#E3EAFF"/>
<path d="M252.962 262.511L252.242 259.621H247.082L247.722 262.511H252.962Z" fill="#E3EAFF"/>
<path d="M208.993 266.611L209.103 263.721H202.783L202.453 266.611H208.993Z" fill="#E3EAFF"/>
<path d="M285.172 267.82L286.082 270.35H292.832L291.822 267.82H285.172Z" fill="#E3EAFF"/>
<path d="M305.27 262.511L303.96 259.621H297.57L298.81 262.511H305.27Z" fill="#E3EAFF"/>
<path d="M293.141 267.82L294.151 270.35H300.831L299.751 267.82H293.141Z" fill="#E3EAFF"/>
<path d="M195.23 263.721L194.73 266.611H201.22L201.55 263.721H195.23Z" fill="#E3EAFF"/>
<path d="M105.833 263.721L104.203 266.611H110.733L112.123 263.721H105.833Z" fill="#E3EAFF"/>
<path d="M226.043 267.82L226.333 270.35H233.023L232.593 267.82H226.043Z" fill="#E3EAFF"/>
<path d="M127.361 267.82L126.281 270.35H132.971L133.981 267.82H127.361Z" fill="#E3EAFF"/>
<path d="M208.942 267.82H202.302L202.012 270.35H208.832L208.942 267.82Z" fill="#E3EAFF"/>
<path d="M297.482 262.511L296.252 259.621H289.852L291.012 262.511H297.482Z" fill="#E3EAFF"/>
<path d="M111.501 267.82L110.281 270.35H116.941L118.091 267.82H111.501Z" fill="#E3EAFF"/>
<path d="M239.754 259.621L240.324 262.511H246.474L245.834 259.621H239.754Z" fill="#E3EAFF"/>
<path d="M269.262 267.82L269.992 270.35H276.672L275.902 267.82H269.262Z" fill="#E3EAFF"/>
<path d="M241.371 267.82L241.871 270.35H248.231L247.671 267.82H241.371Z" fill="#E3EAFF"/>
<path d="M274.273 262.511L273.393 259.621H266.863L267.703 262.511H274.273Z" fill="#E3EAFF"/>
<path d="M281.962 262.511L280.922 259.621H274.672L275.552 262.511H281.962Z" fill="#E3EAFF"/>
<path d="M233.832 267.82L234.262 270.35H240.632L240.132 267.82H233.832Z" fill="#E3EAFF"/>
<path d="M277.184 267.82L277.954 270.35H284.784L283.874 267.82H277.184Z" fill="#E3EAFF"/>
<path d="M110.462 255.521L108.832 258.401H114.682L116.072 255.521H110.462Z" fill="#E3EAFF"/>
<path d="M309.031 267.82L310.171 270.35H316.831L315.621 267.82H309.031Z" fill="#E3EAFF"/>
<path d="M112.672 251.621L111.152 254.301H116.662L117.952 251.621H112.672Z" fill="#E3EAFF"/>
<path d="M289.693 262.511L288.543 259.621H282.223L283.253 262.511H289.693Z" fill="#E3EAFF"/>
<path d="M192.861 270.35L193.291 267.82H135.291L134.281 270.35H192.861Z" fill="#E3EAFF"/>
<path d="M248.922 267.82L249.482 270.35H254.942L254.302 267.82H248.922Z" fill="#E3EAFF"/>
<path d="M203.402 258.401H209.322L209.432 255.521H203.732L203.402 258.401Z" fill="#E3EAFF"/>
<path d="M321.292 263.721H314.992L318.182 270.351H325.032L321.292 263.721Z" fill="#E3EAFF"/>
<path d="M314.413 262.511H320.603L318.973 259.621H313.023L314.413 262.511Z" fill="#E3EAFF"/>
<path d="M313.051 262.511L311.671 259.621H305.301L306.611 262.511H313.051Z" fill="#E3EAFF"/>
<path d="M200.782 270.35L201.082 267.82H194.532L194.102 270.35H200.782Z" fill="#E3EAFF"/>
<path d="M210.163 267.82L210.062 270.35H225.113L224.812 267.82H210.163Z" fill="#E3EAFF"/>
<path d="M301.082 267.82L302.162 270.35H308.832L307.692 267.82H301.082Z" fill="#E3EAFF"/>
<path d="M259.914 262.511L259.104 259.621H253.504L254.224 262.511H259.914Z" fill="#E3EAFF"/>
<path d="M255.562 267.82L256.193 270.35H262.092L261.393 267.82H255.562Z" fill="#E3EAFF"/>
<path d="M108.143 259.621L106.523 262.511H112.713L114.103 259.621H108.143Z" fill="#E3EAFF"/>
<path d="M124.242 254.301L125.462 251.621H119.302L118.012 254.301H124.242Z" fill="#E3EAFF"/>
<path d="M119.431 267.82L118.281 270.35H124.961L126.031 267.82H119.431Z" fill="#E3EAFF"/>
<path d="M209.152 262.511L209.272 259.621H203.262L202.922 262.511H209.152Z" fill="#E3EAFF"/>
<path d="M231.893 263.721H225.562L225.902 266.611H232.383L231.893 263.721Z" fill="#E3EAFF"/>
<path d="M251.77 291.82H175.35C175.02 291.82 174.73 291.67 174.53 291.41C174.34 291.15 174.28 290.82 174.38 290.51L179.24 274.72C179.37 274.29 179.76 274.01 180.21 274.01H246.91C247.36 274.01 247.75 274.3 247.88 274.72L252.74 290.51C252.84 290.82 252.78 291.15 252.59 291.41C252.4 291.67 252.1 291.82 251.77 291.82ZM180.21 274.91C180.21 274.91 180.12 274.94 180.11 274.99L175.25 290.78C175.25 290.78 175.25 290.86 175.27 290.88C175.29 290.9 175.31 290.92 175.36 290.92H251.78C251.78 290.92 251.85 290.9 251.87 290.88C251.88 290.86 251.9 290.83 251.89 290.78L247.03 274.99C247.03 274.99 246.97 274.91 246.93 274.91H180.23H180.21Z" fill="#E3EAFF"/>
<path d="M250.674 131.01L167.664 144.1L247.474 184.03L330.134 171.74L250.674 131.01Z" fill="#424242"/>
<path d="M167.664 144.1V146L247.534 187.74L330.134 173.55V171.74L247.474 184.03L167.664 144.1Z" fill="#2E2E2E"/>
<path d="M198.536 189.02L197.266 197.46C197.266 197.46 231.346 224.83 279.416 211.37L280.156 204.78C237.676 211.89 210.936 198.12 198.546 189.02H198.536Z" fill="#2E2E2E"/>
<path d="M299.734 233.459C295.284 229.929 292.134 224.729 290.634 219.249C290.524 218.839 289.984 218.989 289.914 219.339C289.814 219.209 289.614 219.189 289.444 219.269C289.364 218.989 288.904 218.859 288.734 219.199C285.684 225.109 288.044 231.789 290.084 237.639C290.244 238.099 290.754 237.849 290.594 237.389C288.994 232.809 287.284 227.689 288.264 222.859C287.724 228.959 289.754 235.199 293.474 240.039C293.744 240.389 294.164 239.969 293.894 239.619C290.514 235.229 288.774 229.649 288.954 224.109C289.054 226.289 289.394 228.469 290.094 230.519C291.164 233.669 292.954 236.679 294.734 239.469C294.994 239.879 295.414 239.459 295.154 239.049C293.434 236.369 291.954 233.489 290.884 230.479C290.424 229.189 290.124 227.839 289.934 226.469C290.964 230.909 293.104 235.069 296.184 238.459C296.504 238.819 296.934 238.499 296.604 238.139C293.234 234.429 291.204 229.679 290.364 224.779C291.604 229.369 293.884 233.709 296.904 237.439C297.214 237.819 297.524 237.409 297.214 237.029C294.264 233.389 292.324 229.139 291.104 224.659C292.744 229.279 294.864 233.729 298.624 237.019C298.994 237.339 299.394 236.969 299.024 236.649C296.444 234.389 294.744 231.349 293.354 228.289C294.854 230.959 296.664 233.459 298.764 235.719C299.094 236.079 299.374 235.509 299.044 235.159C297.194 233.169 295.784 230.979 294.414 228.649C295.824 230.539 297.464 232.269 299.334 233.739C299.714 234.039 300.124 233.769 299.744 233.469L299.734 233.459Z" fill="#F0C64B"/>
<path d="M291.914 169.559C290.184 167.489 287.844 166.129 285.444 164.959C280.674 162.649 275.374 161.639 270.204 160.659C262.894 159.279 255.424 157.999 249.354 153.389C249.114 153.209 248.894 153.299 248.754 153.479C248.744 153.489 248.734 153.499 248.724 153.519C248.724 153.519 248.724 153.529 248.714 153.539C248.564 153.719 248.524 153.979 248.744 154.189C253.194 158.449 259.144 160.549 265.004 162.039C270.924 163.539 276.964 164.559 282.634 166.919C282.814 166.989 282.984 167.069 283.164 167.139C283.194 167.149 283.384 167.239 283.384 167.239C283.674 167.379 283.964 167.529 284.254 167.669C285.314 168.199 286.344 168.739 287.314 169.419C288.474 170.239 289.554 171.239 290.304 172.459C291.124 173.789 291.404 175.289 291.374 176.839C291.344 178.449 291.044 180.059 290.784 181.639C290.514 183.279 290.274 184.929 290.014 186.579C289.494 189.989 289.004 193.389 288.634 196.819C287.824 204.359 287.604 212.049 288.964 219.549C289.064 220.109 289.994 219.979 289.954 219.419C289.424 212.309 290.004 205.179 291.004 198.129C291.504 194.619 292.104 191.129 292.714 187.639C293.294 184.359 294.054 181.059 294.314 177.749C294.554 174.739 293.864 171.899 291.904 169.559H291.914Z" fill="#F0C64B"/>
<path d="M288.595 220.089C288.685 220.049 288.765 220.009 288.855 219.969C288.905 219.949 288.905 219.949 288.855 219.969C288.885 219.969 288.904 219.949 288.934 219.939C288.974 219.929 289.014 219.909 289.054 219.899C289.244 219.839 289.435 219.799 289.635 219.769C289.685 219.769 289.724 219.749 289.774 219.749C289.644 219.749 289.795 219.749 289.825 219.749C289.925 219.749 290.014 219.749 290.114 219.749C290.214 219.749 290.304 219.749 290.404 219.769C290.454 219.769 290.495 219.769 290.545 219.789C290.575 219.789 290.595 219.789 290.625 219.799C290.555 219.789 290.554 219.789 290.614 219.799C290.754 219.829 290.875 219.829 291.005 219.759C291.115 219.699 291.214 219.589 291.244 219.469C291.304 219.229 291.195 218.889 290.915 218.839C289.965 218.659 289.005 218.769 288.135 219.199C287.895 219.319 287.795 219.649 287.925 219.879C288.065 220.119 288.355 220.209 288.605 220.089H288.595Z" fill="#D8A32B"/>
<path d="M288.493 219.099C288.583 219.059 288.663 219.019 288.753 218.979C288.803 218.959 288.803 218.959 288.753 218.979C288.783 218.979 288.803 218.959 288.833 218.949C288.873 218.939 288.913 218.919 288.953 218.909C289.143 218.849 289.333 218.809 289.533 218.779C289.583 218.779 289.623 218.759 289.673 218.759C289.543 218.759 289.693 218.759 289.723 218.759C289.823 218.759 289.913 218.759 290.013 218.759C290.113 218.759 290.203 218.759 290.303 218.779C290.353 218.779 290.393 218.779 290.443 218.799C290.473 218.799 290.493 218.799 290.523 218.809C290.453 218.799 290.453 218.799 290.513 218.809C290.653 218.839 290.773 218.839 290.903 218.769C291.013 218.709 291.113 218.599 291.143 218.479C291.203 218.239 291.093 217.899 290.813 217.849C289.863 217.669 288.903 217.779 288.033 218.209C287.793 218.329 287.693 218.659 287.823 218.889C287.963 219.129 288.253 219.219 288.503 219.099H288.493Z" fill="#D8A32B"/>
<path d="M282.643 184.919L283.053 181.639L247.533 187.739L202.813 164.369L201.863 169.889L246.643 192.439L282.643 184.919Z" fill="#262627"/>
<path d="M246.643 192.439L201.863 169.889L198.543 189.019C210.933 198.109 237.673 211.879 280.153 204.779L282.643 184.919L246.643 192.429V192.439Z" fill="#424242"/>
<path d="M192.353 218.399C194.333 223.739 190.073 230.239 182.843 232.929C175.603 235.619 171.483 232.229 168.583 227.319C164.353 220.149 168.433 216.279 175.663 213.589C182.903 210.899 190.373 213.059 192.353 218.389V218.399Z" fill="#FFF6DC"/>
<path d="M120.103 159.599C120.103 159.599 138.053 178.089 152.773 211.279C152.773 211.279 159.753 229.299 164.333 233.799C164.333 233.799 160.623 229.629 166.283 222.959C170.443 218.059 176.503 215.059 182.913 214.839C186.503 214.709 190.243 215.459 192.373 218.479C192.373 218.479 168.423 190.269 152.783 165.929C146.533 156.209 143.573 148.169 142.273 142.029C142.273 142.029 141.093 140.639 138.743 139.479C130.103 135.209 119.933 140.959 118.423 150.469C118.283 151.359 118.193 152.299 118.173 153.309C118.173 153.309 118.053 157.529 120.103 159.599Z" fill="white"/>
<path d="M164.332 233.788C164.332 233.788 172.192 243.268 189.992 231.888C189.992 231.888 201.012 224.538 195.512 211.738C195.512 211.738 184.092 203.218 175.082 192.428C166.072 181.638 154.932 166.938 145.692 147.498L143.332 146.068C143.332 146.068 145.032 155.288 156.032 170.818C167.032 186.348 187.332 212.358 187.332 212.358L190.432 216.098C192.212 218.248 192.822 221.198 191.842 223.808C190.442 227.528 186.322 231.928 174.842 232.598L167.672 221.468C167.672 221.468 160.712 227.238 164.342 233.788H164.332Z" fill="#F4E7BD"/>
<path d="M181.712 199.649C181.712 199.649 161.082 178.139 146.622 144.089C146.622 144.089 144.012 139.949 142.352 138.029C142.352 138.029 154.922 176.879 181.702 199.639L181.712 199.649Z" fill="white"/>
<path d="M143.771 193.41C148.111 185.58 157.491 180.41 166.411 180.85C169.591 181.01 169.581 177.06 166.411 176.9C155.821 176.37 145.331 181.65 140.191 190.91C140.191 190.91 142.221 196.19 143.761 193.4L143.771 193.41Z" fill="#F0C64B"/>
<path d="M111.818 167.199H71.3381C65.9478 167.199 61.5781 171.569 61.5781 176.959V198.039C61.5781 203.43 65.9478 207.799 71.3381 207.799H111.818C117.208 207.799 121.578 203.43 121.578 198.039V176.959C121.578 171.569 117.208 167.199 111.818 167.199Z" fill="#E74848"/>
<path d="M85.1367 187.498V180.068L91.5767 183.778L98.0067 187.498L91.5767 191.218L85.1367 194.938V187.498Z" fill="#D5CBFB"/>
<path d="M79.8527 118.26C79.8527 105.86 69.8027 95.8203 57.4127 95.8203C45.0227 95.8203 34.9727 105.87 34.9727 118.26C34.9727 127.24 40.2527 134.99 47.8727 138.58V145.74H66.9527V138.58C74.5727 134.99 79.8527 127.25 79.8527 118.26Z" fill="white"/>
<path d="M67.5623 149.43H47.2523C46.2323 149.43 45.4023 148.6 45.4023 147.58C45.4023 146.56 46.2323 145.73 47.2523 145.73H67.5623C68.5823 145.73 69.4123 146.56 69.4123 147.58C69.4123 148.6 68.5823 149.43 67.5623 149.43Z" fill="#F0C64B"/>
<path d="M49.9922 151.281H64.8322V152.511C64.8322 156.611 61.5122 159.931 57.4122 159.931C53.3122 159.931 49.9922 156.611 49.9922 152.511V151.281Z" fill="#F0C64B"/>
<path d="M67.5623 153.13H47.2523C46.2323 153.13 45.4023 152.3 45.4023 151.28C45.4023 150.26 46.2323 149.43 47.2523 149.43H67.5623C68.5823 149.43 69.4123 150.26 69.4123 151.28C69.4123 152.3 68.5823 153.13 67.5623 153.13Z" fill="#D8A32B"/>
<path d="M59.4511 145.73H58.4011V114.55C58.4011 114 57.9611 113.56 57.4111 113.56C56.8611 113.56 56.4211 114 56.4211 114.55V145.73H55.3711V114.55C55.3711 113.42 56.2911 112.51 57.4111 112.51C58.5311 112.51 59.4511 113.43 59.4511 114.55V145.73Z" fill="#F0C64B"/>
<path d="M22.1317 110.611L21.5117 113.821L30.8917 115.621C31.0217 114.521 31.2117 113.451 31.4617 112.401L22.1217 110.611H22.1317Z" fill="#EEB543"/>
<path d="M29.562 95.8203L27.582 98.4303L35.062 104.09C35.662 103.17 36.312 102.3 37.022 101.47L29.562 95.8203Z" fill="#EEB543"/>
<path d="M42.6817 85.8203L39.7617 87.2903L43.9717 95.6303C44.9117 95.0803 45.8817 94.5903 46.8917 94.1503L42.6917 85.8203H42.6817Z" fill="#EEB543"/>
<path d="M93.2999 113.821L92.6798 110.611L83.3398 112.401C83.5898 113.451 83.7899 114.531 83.9099 115.621L93.2898 113.821H93.2999Z" fill="#EEB543"/>
<path d="M87.233 98.4205L85.253 95.8105L77.793 101.461C78.493 102.291 79.153 103.171 79.753 104.081L87.233 98.4205Z" fill="#EEB543"/>
<path d="M75.0614 87.3001L72.1414 85.8301L67.9414 94.1601C68.9514 94.5901 69.9214 95.0901 70.8614 95.6401L75.0714 87.3001H75.0614Z" fill="#EEB543"/>
<path d="M59.0805 92.0506L59.0005 82.5605L55.7305 82.5905L55.8105 92.0506C56.3405 92.0206 56.8705 92.0005 57.4105 92.0005C57.9505 92.0005 58.5305 92.0205 59.0805 92.0605V92.0506Z" fill="#EEB543"/>
<path d="M388.94 289.68H294.09V308.38H388.94V289.68Z" fill="#F0C64B"/>
<path d="M303.25 289.68H299.43V308.38H303.25V289.68Z" fill="#D8A32B"/>
<path d="M308.98 289.68H305.16V308.38H308.98V289.68Z" fill="#D8A32B"/>
<path d="M377.871 289.68H374.051V308.38H377.871V289.68Z" fill="#D8A32B"/>
<path d="M383.601 289.68H379.781V308.38H383.601V289.68Z" fill="#D8A32B"/>
<path d="M398.069 279.259V276.379C398.069 272.289 394.739 268.959 390.649 268.959H306.109V286.669H390.649C394.739 286.669 398.069 283.339 398.069 279.249V279.259Z" fill="white"/>
<path d="M390.649 265.85H305.559V268.97H390.649C394.739 268.97 398.069 272.3 398.069 276.39V279.27C398.069 283.36 394.739 286.69 390.649 286.69H305.559V289.81H390.649C396.459 289.81 401.179 285.09 401.179 279.28V276.4C401.179 270.59 396.459 265.87 390.649 265.87V265.85Z" fill="#F0C64B"/>
<path d="M392.299 272.93H306.109V274.35H392.299V272.93Z" fill="#F5F5FF"/>
<path d="M392.299 277.199H306.109V278.619H392.299V277.199Z" fill="#F5F5FF"/>
<path d="M392.299 281.459H306.109V282.879H392.299V281.459Z" fill="#F5F5FF"/>
<path d="M298.867 256.481V253.891C298.867 250.211 301.867 247.211 305.547 247.211H381.667V263.151H305.547C301.867 263.151 298.867 260.151 298.867 256.471V256.481Z" fill="white"/>
<path d="M305.539 244.4H382.159V247.21H305.539C301.859 247.21 298.859 250.21 298.859 253.89V256.48C298.859 260.16 301.859 263.16 305.539 263.16H382.159V265.97H305.539C300.309 265.97 296.059 261.72 296.059 256.49V253.9C296.059 248.67 300.309 244.42 305.539 244.42V244.4Z" fill="#F0C64B"/>
<path d="M304.058 252.049H381.668V250.769H304.058V252.049Z" fill="#F5F5FF"/>
<path d="M304.058 255.9H381.668V254.62H304.058V255.9Z" fill="#F5F5FF"/>
<path d="M304.058 259.74H381.668V258.46H304.058V259.74Z" fill="#F5F5FF"/>
<path d="M145.918 45.5703C149.498 45.5703 152.408 48.3903 152.408 51.8603V52.8203C153.708 56.4903 154.508 61.2703 154.508 66.5103C154.508 71.7503 153.718 76.5303 152.408 80.2003V81.1603C152.408 84.6303 149.508 87.4503 145.918 87.4503C141.178 87.4503 137.328 78.0803 137.328 66.5203C137.328 54.9603 141.168 45.5903 145.918 45.5903V45.5703Z" fill="#F0C64B"/>
<path d="M140.258 66.7709C140.258 73.8409 140.808 79.5809 141.478 79.5809C142.148 79.5809 142.698 73.8509 142.698 66.7709C142.698 59.6909 142.148 53.9609 141.478 53.9609C140.808 53.9609 140.258 59.6909 140.258 66.7709Z" fill="#D8A32B"/>
<path d="M161.486 57.0096V76.5196C161.046 81.3496 156.606 85.8196 150.656 87.4296V46.0996C156.606 47.7196 161.046 52.1896 161.486 57.0096Z" fill="#EEB543"/>
<path d="M150.658 89.6696C151.628 89.6696 152.418 88.8996 152.418 87.9596V45.5596C152.418 44.6196 151.628 43.8496 150.658 43.8496C149.688 43.8496 148.898 44.6196 148.898 45.5596V87.9596C148.898 88.8996 149.688 89.6696 150.658 89.6696Z" fill="#F0C64B"/>
<path d="M112.227 45.5703C108.647 45.5703 105.737 48.3903 105.737 51.8603V52.8203C104.437 56.4903 103.637 61.2703 103.637 66.5103C103.637 71.7503 104.427 76.5303 105.737 80.2003V81.1603C105.737 84.6303 108.637 87.4503 112.227 87.4503C116.967 87.4503 120.817 78.0803 120.817 66.5203C120.817 54.9603 116.977 45.5903 112.227 45.5903V45.5703Z" fill="#F0C64B"/>
<path d="M117.885 66.7709C117.885 73.8409 117.335 79.5809 116.665 79.5809C115.995 79.5809 115.445 73.8509 115.445 66.7709C115.445 59.6909 115.995 53.9609 116.665 53.9609C117.335 53.9609 117.885 59.6909 117.885 66.7709Z" fill="#D8A32B"/>
<path d="M96.6484 57.0096V76.5196C97.0884 81.3496 101.528 85.8196 107.478 87.4296V46.0996C101.528 47.7196 97.0884 52.1896 96.6484 57.0096Z" fill="#EEB543"/>
<path d="M107.487 89.6696C106.517 89.6696 105.727 88.8996 105.727 87.9596V45.5596C105.727 44.6196 106.517 43.8496 107.487 43.8496C108.457 43.8496 109.247 44.6196 109.247 45.5596V87.9596C109.247 88.8996 108.457 89.6696 107.487 89.6696Z" fill="#F0C64B"/>
<path d="M150.829 19.7604C147.309 16.8504 142.699 15.0204 138.319 13.9404C133.829 12.8404 129.129 12.5504 124.539 13.0904C123.149 13.2504 121.769 13.4704 120.409 13.7604C119.479 13.9604 118.449 14.1104 117.579 14.5204C116.669 14.9504 115.789 15.4204 114.889 15.8804C112.459 17.1004 110.039 18.3304 107.609 19.5504C106.639 20.0404 106.759 21.4504 107.609 21.9704C109.849 23.3304 112.419 23.5004 114.959 23.1004C116.749 22.8204 118.379 22.1504 120.069 21.5604C123.109 20.5104 126.409 19.9904 129.619 19.9704C132.489 19.9604 135.389 20.3904 138.039 21.5204C141.959 23.2104 146.649 24.3304 150.539 21.9604C151.249 21.5304 151.539 20.3504 150.819 19.7604H150.829Z" fill="#EEB543"/>
<path d="M129.678 11.5398V11.5098C129.478 11.5098 129.278 11.5198 129.068 11.5298C128.868 11.5298 128.658 11.5098 128.458 11.5098V11.5398C108.258 12.1798 92.0781 28.7498 92.0781 49.1098V71.9298C92.0781 74.4598 94.1281 76.5198 96.6681 76.5198V54.0198L96.5681 53.4298C95.0181 44.3098 96.9981 34.8098 102.568 27.4198C105.168 23.9698 108.688 20.7198 113.458 18.3698C113.518 18.3398 113.568 18.3098 113.628 18.2898C123.338 13.5498 134.808 13.5498 144.518 18.2898C144.578 18.3198 144.628 18.3498 144.688 18.3698C149.488 20.7298 153.018 24.0098 155.628 27.4798C161.158 34.8598 163.118 44.3398 161.578 53.4298L161.478 54.0098V76.5098C164.008 76.5098 166.068 74.4598 166.068 71.9198V49.0998C166.068 28.7398 149.888 12.1698 129.678 11.5298V11.5398Z" fill="#F0C64B"/>
<path d="M407.111 93.3203H347.441V179.61H407.111V93.3203Z" fill="#E3EAFF"/>
<path d="M400.673 105.98H353.883V107.89H400.673V105.98Z" fill="#F0C64B"/>
<path d="M400.673 114.74H353.883V116.65H400.673V114.74Z" fill="#F0C64B"/>
<path d="M400.673 123.51H353.883V125.42H400.673V123.51Z" fill="#F0C64B"/>
<path d="M400.673 132.281H353.883V134.191H400.673V132.281Z" fill="#F0C64B"/>
<path d="M400.673 141.051H353.883V142.961H400.673V141.051Z" fill="#F0C64B"/>
<path d="M400.673 149.811H353.883V151.721H400.673V149.811Z" fill="#F0C64B"/>
<path d="M400.673 171.109H353.883V171.639H400.673V171.109Z" fill="white"/>
<path d="M360.273 162.829C362.663 163.229 365.093 163.349 367.503 163.139C369.733 162.949 372.103 162.569 374.183 161.709C375.663 161.099 377.283 159.419 376.243 157.729C375.323 156.239 373.033 156.089 371.503 156.449C369.723 156.869 368.143 158.039 367.063 159.489C365.983 160.939 365.233 163.039 366.513 164.609C367.693 166.059 369.863 166.349 371.603 166.109C372.583 165.969 373.533 165.649 374.393 165.149C374.793 164.919 375.163 164.639 375.523 164.349C375.983 163.969 376.473 163.459 377.103 163.369C377.853 163.269 378.033 163.829 378.503 164.249C378.833 164.539 379.263 164.629 379.693 164.589C380.223 164.539 380.703 164.309 381.193 164.119C381.813 163.879 382.423 163.789 383.083 163.809C385.933 163.879 388.793 164.259 391.633 164.489C392.143 164.529 392.133 164.059 391.633 164.019C389.523 163.849 387.413 163.359 385.293 163.189C384.333 163.109 383.333 162.959 382.373 163.039C381.463 163.109 380.733 163.589 379.863 163.769C378.883 163.979 378.753 162.989 377.963 162.689C377.263 162.419 376.503 162.649 375.903 163.049C375.173 163.529 374.583 164.169 373.813 164.589C372.943 165.059 371.963 165.339 370.973 165.399C369.373 165.499 366.993 165.009 366.653 163.119C366.343 161.389 367.783 159.609 369.023 158.589C370.303 157.539 372.033 156.849 373.703 157.159C374.503 157.309 375.533 157.679 375.733 158.569C375.963 159.609 375.043 160.449 374.203 160.859C373.233 161.339 372.103 161.579 371.043 161.819C369.873 162.079 368.683 162.269 367.493 162.369C365.153 162.569 362.793 162.689 360.473 162.299C359.973 162.219 359.763 162.769 360.263 162.849L360.273 162.829Z" fill="#F0C64B"/>
<path d="M423.111 133.281L429.149 136.557C430.38 137.224 430.829 138.765 430.167 139.987L427.081 145.674L416.595 139.985L419.68 134.298C420.348 133.067 421.889 132.618 423.111 133.281Z" fill="#D5CBFB"/>
<path d="M426.294 147.068L415.809 141.377L385.504 197.213L395.99 202.904L426.294 147.068Z" fill="#F0C64B"/>
<path d="M422.971 145.19L419.227 143.158L388.932 199L392.677 201.031L422.971 145.19Z" fill="#1C1C84"/>
<path d="M428.959 145.18L415.977 138.137L414.613 140.651L427.595 147.694L428.959 145.18Z" fill="#F0C64B"/>
<path d="M396.019 202.879L385.529 197.189L384.469 206.709L388.619 208.959L396.019 202.879Z" fill="#D5CBFB"/>
<path d="M388.62 208.959L384.47 206.709L383.77 212.949L388.62 208.959Z" fill="#F0C64B"/>
<path d="M51.9297 48.7383L62.6597 59.4783" stroke="#EEB543" stroke-width="2.15" stroke-miterlimit="10"/>
<path d="M62.8784 48.7383L52.1484 59.4783" stroke="#EEB543" stroke-width="2.15" stroke-miterlimit="10"/>
<path d="M413 209.729L423.74 220.459" stroke="#EEB543" stroke-width="2.15" stroke-miterlimit="10"/>
<path d="M423.949 209.729L413.219 220.459" stroke="#EEB543" stroke-width="2.15" stroke-miterlimit="10"/>
<path d="M21.6484 172.119L31.1484 181.619" stroke="#F0C64B" stroke-width="1.9" stroke-miterlimit="10"/>
<path d="M31.3398 172.119L21.8398 181.619" stroke="#F0C64B" stroke-width="1.9" stroke-miterlimit="10"/>
<path d="M16.6103 93.3188C16.6103 97.6088 13.1303 101.089 8.84031 101.089C4.55031 101.089 1.07031 97.6088 1.07031 93.3188C1.07031 89.0288 4.55031 85.5488 8.84031 85.5488C13.1303 85.5488 16.6103 89.0288 16.6103 93.3188Z" stroke="#EEB543" stroke-width="2.15" stroke-miterlimit="10"/>
<path d="M320.602 87.3388C324.893 87.3388 328.372 83.8601 328.372 79.5688C328.372 75.2776 324.893 71.7988 320.602 71.7988C316.311 71.7988 312.832 75.2776 312.832 79.5688C312.832 83.8601 316.311 87.3388 320.602 87.3388Z" stroke="#EEB543" stroke-width="2.15" stroke-miterlimit="10"/>
<path d="M356.042 68.7395C356.042 69.8295 355.162 70.7095 354.072 70.7095C352.982 70.7095 352.102 69.8295 352.102 68.7395C352.102 67.6495 352.982 66.7695 354.072 66.7695C355.162 66.7695 356.042 67.6495 356.042 68.7395Z" stroke="#F0C64B" stroke-width="1.9" stroke-miterlimit="10"/>
<path d="M165.69 2.91922C165.69 4.00922 164.81 4.88922 163.72 4.88922C162.63 4.88922 161.75 4.00922 161.75 2.91922C161.75 1.82922 162.63 0.949219 163.72 0.949219C164.81 0.949219 165.69 1.82922 165.69 2.91922Z" stroke="#F0C64B" stroke-width="1.9" stroke-miterlimit="10"/>
<path d="M39.7309 253.42V258.09C33.4609 258.44 28.4609 263.64 28.4609 270V273.97C28.4609 280.49 33.7109 285.79 40.1909 285.91C42.5509 298.69 53.7409 308.38 67.2009 308.38C82.3809 308.38 94.6809 296.08 94.6809 280.9V253.42H39.7209H39.7309ZM32.3209 273.97V270C32.3209 265.77 35.5909 262.29 39.7309 261.95V280.9C39.7309 281.28 39.7409 281.65 39.7609 282.03C35.6009 281.7 32.3209 278.22 32.3209 273.98V273.97Z" fill="#F0C64B"/>
<path d="M81.0018 222.14C77.5018 220.34 72.9118 221.19 70.1018 223.94C69.6018 219.93 65.7918 216.9 61.7918 216.3C57.7918 215.7 53.7418 217.1 50.2318 219.11C46.7918 221.08 43.5818 223.81 42.1418 227.5C40.7018 231.19 41.5118 235.95 44.7718 238.2C46.1018 239.11 47.7918 239.37 49.3718 239.1C49.5818 240.36 50.0818 241.55 50.8918 242.55C53.6118 245.86 59.2318 246.19 62.3218 243.22C64.6618 245.29 68.2618 245.82 71.1018 244.5C71.7218 244.21 72.2918 243.84 72.8118 243.4C72.6018 246.15 71.5618 248.84 69.8018 250.97C73.2118 249.78 76.1218 247.24 77.7618 244.03C78.8318 241.92 79.3418 239.54 79.2718 237.17C81.9218 236.66 84.3618 234.72 85.2218 232.12C86.4618 228.39 84.4818 223.94 80.9918 222.14H81.0018Z" fill="#D5CBFB"/>
<path d="M204.318 57.1997C204.178 57.1897 204.028 57.1797 203.878 57.1797C200.958 57.1797 198.578 59.5597 198.578 62.4797C198.578 65.3997 200.958 67.7797 203.878 67.7797C204.028 67.7797 204.178 67.7797 204.308 67.7597C207.038 67.5397 209.178 65.2097 209.178 62.4797C209.178 59.7497 207.048 57.4197 204.318 57.1997Z" fill="#F0C64B"/>
<path d="M222.91 62.4792C222.91 61.5592 222.55 60.6992 221.9 60.0492C221.25 59.3992 220.39 59.0392 219.47 59.0392H217.51L217.31 58.3792C217.05 57.5092 216.7 56.6692 216.27 55.8692L215.94 55.2592L217.33 53.8692C218.67 52.5292 218.67 50.3592 217.33 49.0192C216.68 48.3692 215.82 48.0192 214.9 48.0192C213.98 48.0192 213.12 48.3792 212.47 49.0192L211.08 50.4092L210.47 50.0792C209.67 49.6492 208.83 49.2992 207.96 49.0392L207.3 48.8392V46.8792C207.3 45.2492 206.14 43.8392 204.55 43.5192C204.33 43.4692 204.1 43.4492 203.87 43.4492C202.95 43.4492 202.09 43.8092 201.44 44.4592C200.79 45.1092 200.43 45.9692 200.43 46.8892V48.8492L199.77 49.0492C198.9 49.3092 198.06 49.6592 197.26 50.0892L196.65 50.4192L195.26 49.0292C193.92 47.6892 191.75 47.6892 190.41 49.0292C189.76 49.6792 189.41 50.5392 189.41 51.4592C189.41 52.3792 189.77 53.2392 190.41 53.8892L191.8 55.2792L191.47 55.8892C191.04 56.6892 190.69 57.5292 190.43 58.3992L190.23 59.0592H188.27C186.38 59.0592 184.84 60.5992 184.84 62.4892C184.84 63.4092 185.2 64.2692 185.85 64.9192C186.5 65.5692 187.36 65.9292 188.28 65.9292H190.24L190.44 66.5892C190.7 67.4592 191.05 68.2992 191.48 69.0992L191.81 69.7092L190.42 71.0992C189.08 72.4392 189.08 74.6092 190.42 75.9492C191.07 76.5992 191.93 76.9492 192.85 76.9492C193.77 76.9492 194.63 76.5892 195.28 75.9492L196.67 74.5592L197.28 74.8892C198.08 75.3192 198.92 75.6692 199.79 75.9292L200.45 76.1292V78.0892C200.45 79.9792 201.99 81.5192 203.88 81.5192C204.1 81.5192 204.33 81.4992 204.55 81.4592L204.65 81.4392C205.28 81.2992 205.85 80.9792 206.3 80.5192C206.95 79.8692 207.31 79.0092 207.31 78.0892V76.1292L207.97 75.9292C208.84 75.6692 209.68 75.3192 210.48 74.8892L211.09 74.5592L212.48 75.9492C213.13 76.5992 213.99 76.9492 214.91 76.9492C215.83 76.9492 216.69 76.5892 217.34 75.9492C217.99 75.2992 218.34 74.4392 218.34 73.5192C218.34 72.5992 217.98 71.7392 217.34 71.0892L215.95 69.6992L216.28 69.0892C216.71 68.2892 217.06 67.4492 217.32 66.5792L217.52 65.9192H219.48C221.37 65.9192 222.91 64.3792 222.91 62.4892V62.4792ZM210.98 69.0492C209.33 70.8292 207.1 71.9192 204.68 72.1192C204.42 72.1392 204.15 72.1492 203.88 72.1492C198.55 72.1492 194.21 67.8092 194.21 62.4792C194.21 57.1492 198.55 52.8092 203.88 52.8092C204.15 52.8092 204.43 52.8192 204.69 52.8392C207.09 53.0392 209.33 54.1292 210.98 55.9092C212.64 57.6992 213.55 60.0292 213.55 62.4792C213.55 64.9292 212.64 67.2592 210.98 69.0492Z" fill="#F0C64B"/>
<path d="M351.151 211.88C351.111 211.97 351.071 212.06 351.041 212.15C350.351 213.93 351.251 215.94 353.031 216.62C354.811 217.31 356.821 216.41 357.501 214.63C357.541 214.54 357.571 214.45 357.591 214.36C358.091 212.64 357.181 210.8 355.511 210.15C353.841 209.51 351.931 210.26 351.151 211.87V211.88Z" fill="#F0C64B"/>
<path d="M358.731 201.8C358.171 201.59 357.561 201.6 357.021 201.84C356.471 202.08 356.051 202.52 355.841 203.08L355.381 204.28L354.931 204.25C354.341 204.21 353.751 204.22 353.161 204.3L352.711 204.36L352.191 203.19C351.691 202.06 350.361 201.55 349.231 202.05C348.681 202.29 348.261 202.73 348.051 203.29C347.841 203.85 347.851 204.46 348.091 205L348.611 206.17L348.271 206.47C347.821 206.86 347.411 207.29 347.051 207.75L346.771 208.11L345.571 207.65C344.581 207.27 343.451 207.65 342.881 208.54C342.801 208.67 342.731 208.8 342.681 208.94C342.471 209.5 342.481 210.11 342.721 210.65C342.961 211.2 343.401 211.62 343.961 211.83L345.161 212.29L345.131 212.74C345.091 213.33 345.101 213.92 345.171 214.51L345.231 214.96L344.061 215.48C342.931 215.98 342.421 217.31 342.921 218.44C343.161 218.99 343.601 219.41 344.161 219.62C344.721 219.83 345.331 219.82 345.871 219.58L347.041 219.06L347.341 219.4C347.731 219.85 348.161 220.26 348.621 220.62L348.981 220.9L348.521 222.1C348.081 223.25 348.651 224.55 349.811 225C350.371 225.21 350.981 225.2 351.521 224.96C352.071 224.72 352.491 224.28 352.701 223.72L353.161 222.52L353.611 222.55C354.201 222.59 354.791 222.58 355.381 222.5L355.831 222.44L356.351 223.61C356.851 224.74 358.181 225.25 359.311 224.75C359.861 224.51 360.281 224.07 360.491 223.51C360.701 222.95 360.691 222.34 360.451 221.8L359.931 220.63L360.271 220.33C360.721 219.94 361.131 219.51 361.491 219.05L361.771 218.69L362.971 219.15C364.121 219.59 365.421 219.02 365.871 217.86C365.921 217.72 365.961 217.58 365.991 217.44V217.37C366.061 216.96 366.001 216.53 365.831 216.15C365.591 215.6 365.151 215.18 364.591 214.97L363.391 214.51L363.421 214.06C363.461 213.47 363.451 212.88 363.381 212.29L363.321 211.84L364.491 211.32C365.041 211.08 365.451 210.64 365.671 210.08C365.891 209.52 365.871 208.91 365.631 208.37C365.391 207.82 364.951 207.4 364.391 207.19C363.831 206.98 363.221 206.99 362.681 207.23L361.511 207.75L361.211 207.41C360.821 206.96 360.391 206.55 359.931 206.19L359.571 205.91L360.031 204.71C360.471 203.56 359.901 202.26 358.741 201.81L358.731 201.8ZM359.931 210.61C360.631 212.03 360.771 213.65 360.321 215.17C360.271 215.33 360.221 215.5 360.151 215.67C358.901 218.92 355.241 220.54 351.991 219.29C348.741 218.04 347.121 214.38 348.371 211.13C348.431 210.96 348.511 210.8 348.581 210.64C349.261 209.22 350.451 208.12 351.921 207.53C353.401 206.94 355.031 206.93 356.521 207.5C358.011 208.07 359.211 209.18 359.921 210.61H359.931Z" fill="#F0C64B"/>
</g>
<defs>
<clipPath id="clip0_696_2957">
<rect width="430.44" height="308.38" fill="white"/>
</clipPath>
</defs>
</svg>
